<?xml version="1.0" encoding="UTF-8" standalone="no"?><!DOCTYPE svg PUBLIC "-//W3C//DTD SVG 1.1//EN" "http://www.w3.org/Graphics/SVG/1.1/DTD/svg11.dtd"><svg width="100%" height="100%" viewBox="0 0 256 77" version="1.1" xmlns="http://www.w3.org/2000/svg" xmlns:xlink="http://www.w3.org/1999/xlink" xml:space="preserve" xmlns:serif="http://www.serif.com/" style="fill-rule:evenodd;clip-rule:evenodd;stroke-linejoin:round;stroke-miterlimit:2;"><g><path d="M87.973,19.148l-0,57.801l-87.973,0l0,-48.099l18.474,-0l0,28.9l51.073,0l0,-57.75l46.626,0l-0,19.148l-28.2,0Zm-27.81,28.901l-32.354,-0l0,-48.049l32.354,0l0,19.148l-13.88,0l0,9.702l13.88,-0l0,19.199Z" style="fill:#fff;"/><path d="M125.556,0l18.426,0l-0,77l-46.235,0l0,-48.1l18.426,0l-0,28.901l9.383,-0l0,-57.801Z" style="fill:#fff;fill-rule:nonzero;"/><path d="M153.756,0l46.235,0l-0,76.949l-46.235,0l0,-19.199l27.761,0l-0,-9.701l-27.761,-0l0,-48.049Zm27.761,28.85l-0,-9.702l-9.335,0l-0,9.702l9.335,-0Z" style="fill:#fff;fill-rule:nonzero;"/><path d="M209.766,0l46.234,0l0,76.949l-46.234,0l-0,-19.199l27.76,0l-0,-9.701l-27.76,-0l-0,-48.049Zm27.76,28.85l-0,-9.702l-9.335,0l-0,9.702l9.335,-0Z" style="fill:#fff;fill-rule:nonzero;"/></g></svg>