<?xml version="1.0" encoding="UTF-8" standalone="no"?><!DOCTYPE svg PUBLIC "-//W3C//DTD SVG 1.1//EN" "http://www.w3.org/Graphics/SVG/1.1/DTD/svg11.dtd"><svg width="100%" height="100%" viewBox="0 0 87 56" version="1.1" xmlns="http://www.w3.org/2000/svg" xmlns:xlink="http://www.w3.org/1999/xlink" xml:space="preserve" xmlns:serif="http://www.serif.com/" style="fill-rule:evenodd;clip-rule:evenodd;stroke-linejoin:round;stroke-miterlimit:2;"><g><path d="M69.654,55.535l0.3,-1c-8.45,-2.64 -14,-6.86 -16.33,-12.56c-3.43,-8.22 0.88,-16.75 0.92,-16.83l-0.88,-0.46c-0.19,0.37 -4.57,9 -1,17.68c2.54,6.02 8.24,10.43 16.99,13.17Z" style="fill:#8c8cf9;fill-rule:nonzero;"/><g><path d="M11.226,18.119l0.028,0.112c0.015,0.06 0.018,0.103 0.01,0.126l0.02,0.211c0.026,0.274 -0.072,0.581 -0.292,0.92c-0.221,0.34 -0.47,0.544 -0.747,0.614l-0.165,0.03c-0.301,0.033 -0.556,-0.022 -0.764,-0.164c-0.188,-0.147 -0.32,-0.373 -0.397,-0.678l-0.058,-0.276l-0.011,-0.3c0.007,-0.318 0.12,-0.605 0.34,-0.862c0.22,-0.256 0.475,-0.421 0.766,-0.494l0.175,-0.033c0.587,-0.039 0.952,0.225 1.095,0.794Zm3.498,9.265l-0.802,0.201c-0.406,0.101 -0.979,0.137 -1.721,0.107c-0.553,-0.026 -1.067,-0.11 -1.54,-0.25l-0.345,0.259l-0.467,0.333l-0.546,0.32l-0.439,0.229c-0.891,0.403 -1.682,0.691 -2.372,0.864c-0.928,0.233 -1.768,0.368 -2.521,0.405c-0.752,0.038 -1.434,-0.039 -2.043,-0.232c-1.019,-0.305 -1.636,-0.888 -1.851,-1.747c-0.022,-0.088 -0.041,-0.176 -0.055,-0.262c-0.014,-0.086 -0.022,-0.172 -0.022,-0.259l-0,-0.345l0.063,-0.307c0.071,-0.406 0.256,-0.845 0.555,-1.315l0.127,-0.183l0.178,-0.152l0.175,-0.12l0.167,-0.063c0.203,-0.051 0.412,-0.015 0.626,0.107c0.214,0.123 0.352,0.306 0.413,0.549c0.066,0.264 0.008,0.549 -0.175,0.853c-0.188,0.285 -0.25,0.552 -0.187,0.802c0.083,0.332 0.475,0.561 1.175,0.688c0.319,0.006 0.725,-0.009 1.219,-0.047l0.779,-0.12l0.891,-0.191c0.791,-0.198 1.44,-0.4 1.946,-0.606c0.506,-0.206 0.861,-0.389 1.066,-0.548c-0.137,-0.203 -0.239,-0.436 -0.305,-0.7c-0.09,-0.359 -0.124,-0.751 -0.101,-1.178c0.022,-0.426 0.121,-0.838 0.295,-1.234c0.179,-0.49 0.441,-0.894 0.786,-1.211c0.34,-0.337 0.716,-0.557 1.129,-0.66l0.233,-0.059c0.068,-0.017 0.146,-0.022 0.234,-0.015c0.14,-0.014 0.299,0.004 0.477,0.053c0.333,0.067 0.623,0.226 0.87,0.478c0.246,0.251 0.415,0.559 0.506,0.924l0.034,0.132c0.011,0.048 0.022,0.121 0.033,0.219c0.023,0.094 0.024,0.227 0.002,0.398c-0.003,0.245 -0.049,0.505 -0.139,0.779l-0.139,0.391l-0.17,0.399l-0.208,0.376l-0.263,0.411l0.441,-0.046l0.48,-0.109l1.025,-0.257l0.486,1.939Zm-3.348,-4.016c-0.015,-0.061 -0.054,-0.102 -0.117,-0.122l-0.129,0c-0.054,0.014 -0.119,0.055 -0.195,0.125l-0.163,0.17l-0.124,0.193c-0.047,0.098 -0.105,0.328 -0.172,0.69l0.01,0.386l0.064,0.383l0.244,-0.233l0.21,-0.323l0.16,-0.353l0.137,-0.358l0.075,-0.299c0.021,-0.092 0.021,-0.178 0,-0.259Z" style="fill:#8c8cf9;fill-rule:nonzero;"/><path d="M19.485,26.19l-0.396,0.099c-0.46,0.116 -0.905,0.105 -1.335,-0.032c-0.345,-0.115 -0.652,-0.304 -0.919,-0.568c-0.208,0.376 -0.559,0.755 -1.053,1.138c-0.434,0.303 -0.804,0.493 -1.109,0.569l-0.264,0.066l-0.486,-1.938l0.305,-0.077c0.508,-0.127 0.932,-0.491 1.275,-1.091c0.342,-0.6 0.517,-1.271 0.525,-2.014c-0.01,-0.213 0.059,-0.398 0.207,-0.553c0.148,-0.156 0.323,-0.26 0.526,-0.31c0.21,-0.053 0.417,-0.044 0.622,0.027c0.184,0.076 0.303,0.219 0.356,0.429l0.02,0.167l0.006,1.013l0.025,0.36l0.049,0.28c0.059,0.236 0.151,0.404 0.277,0.502c0.115,0.115 0.287,0.144 0.518,0.086l0.365,-0.092l0.486,1.939Zm0.06,2.132l0.025,0.188c0.022,0.088 0.03,0.147 0.023,0.178c0.012,0.22 -0.063,0.479 -0.225,0.779l-0.279,0.307c-0.1,0.09 -0.211,0.15 -0.333,0.181l-0.114,0.018c-0.227,0.013 -0.442,-0.044 -0.647,-0.173c-0.149,-0.106 -0.253,-0.278 -0.313,-0.515l-0.035,-0.228l-0.018,-0.244c0.005,-0.238 0.093,-0.473 0.266,-0.703c0.191,-0.213 0.405,-0.35 0.642,-0.409l0.134,-0.023c0.465,-0.037 0.757,0.177 0.874,0.644Zm-2.162,0.542l0.025,0.188c0.022,0.088 0.03,0.147 0.023,0.178c0.024,0.267 -0.052,0.523 -0.228,0.769l-0.279,0.307c-0.1,0.09 -0.211,0.15 -0.332,0.181l-0.125,0.02c-0.26,0.022 -0.468,-0.03 -0.622,-0.157c-0.157,-0.112 -0.265,-0.282 -0.322,-0.513l-0.046,-0.225l-0,-0.259c-0,-0.259 0.088,-0.494 0.266,-0.704c0.177,-0.209 0.388,-0.345 0.631,-0.406l0.145,-0.025c0.459,-0.036 0.746,0.179 0.864,0.646Z" style="fill:#8c8cf9;fill-rule:nonzero;"/><path d="M22.681,15.355l0.028,0.112c0.016,0.061 0.019,0.103 0.011,0.127l0.02,0.21c0.031,0.295 -0.061,0.605 -0.274,0.932c-0.213,0.327 -0.468,0.528 -0.766,0.602l-0.154,0.028c-0.315,0.036 -0.572,-0.026 -0.77,-0.185l-0.244,-0.284c-0.071,-0.111 -0.123,-0.235 -0.157,-0.37l-0.054,-0.213l-0.028,-0.155l0.023,-0.211c-0.012,-0.306 0.096,-0.592 0.324,-0.858c0.107,-0.12 0.216,-0.216 0.328,-0.287l0.236,-0.135l0.208,-0.073l0.175,-0.033c0.587,-0.04 0.952,0.225 1.094,0.793Zm3.534,9.148l-0.7,0.176c-0.257,0.064 -0.669,0.114 -1.236,0.148c-0.347,0.022 -0.684,0.02 -1.01,-0.006c-0.327,-0.026 -0.657,-0.087 -0.99,-0.183c-0.281,0.257 -0.691,0.572 -1.231,0.945l-0.632,0.32l-0.413,0.157l-0.782,0.196l-0.486,-1.939l0.7,-0.175l0.282,-0.081l0.34,-0.15c0.23,-0.116 0.424,-0.233 0.581,-0.351l-0.165,-0.315l-0.145,-0.449l-0.112,-0.576c-0.022,-0.174 -0.017,-0.384 0.015,-0.629c0.013,-0.378 0.106,-0.804 0.278,-1.279c0.173,-0.474 0.431,-0.87 0.776,-1.187c0.34,-0.337 0.716,-0.557 1.129,-0.66l0.193,-0.049l0.274,-0.025c0.134,-0.012 0.293,0.006 0.477,0.053c0.334,0.067 0.624,0.227 0.87,0.478c0.246,0.251 0.415,0.559 0.507,0.925l0.033,0.131c0.012,0.048 0.023,0.121 0.033,0.219c0.024,0.094 0.025,0.227 0.003,0.398c-0.005,0.239 -0.048,0.498 -0.129,0.777l-0.134,0.368l-0.185,0.424l-0.208,0.376l-0.274,0.414l0.452,-0.049l0.479,-0.109l0.924,-0.232l0.486,1.939Zm-3.246,-4.041c-0.015,-0.061 -0.054,-0.102 -0.117,-0.122l-0.14,0.003c-0.047,0.012 -0.113,0.051 -0.196,0.119c-0.084,0.068 -0.182,0.195 -0.293,0.381c-0.085,0.179 -0.136,0.405 -0.155,0.675l0.011,0.386l0.064,0.383c0.184,-0.154 0.335,-0.339 0.454,-0.556l0.296,-0.711l0.076,-0.299c0.02,-0.092 0.02,-0.178 -0,-0.259Z" style="fill:#8c8cf9;fill-rule:nonzero;"/><path d="M28.343,13.364l0.028,0.112c0.015,0.061 0.018,0.103 0.01,0.127l0.02,0.211c0.036,0.314 -0.05,0.629 -0.259,0.944c-0.209,0.315 -0.469,0.511 -0.78,0.589l-0.155,0.028c-0.288,0.029 -0.548,-0.035 -0.782,-0.192c-0.191,-0.161 -0.32,-0.373 -0.386,-0.637l-0.066,-0.307l0.005,-0.282c0.004,-0.325 0.119,-0.614 0.343,-0.868c0.224,-0.254 0.475,-0.416 0.752,-0.485l0.175,-0.033c0.587,-0.04 0.952,0.225 1.095,0.793Zm4.631,6.51c0.037,0.149 0.024,0.296 -0.04,0.442l-0.244,0.406c0.015,0.061 0.074,0.079 0.175,0.053l0.285,-0.071l0.486,1.939l-0.427,0.107l-0.495,0.092l-0.223,0.012l-0.231,-0.017c-0.264,-0.02 -0.471,-0.101 -0.622,-0.243l-0.218,-0.226l-0.199,-0.231l-0.794,0.577l-0.855,0.548c-0.445,0.234 -0.855,0.434 -1.23,0.6l-0.602,0.226l-0.581,0.178l-1.248,0.313l-0.486,-1.938l1.34,-0.336c0.717,-0.18 1.336,-0.409 1.856,-0.687c0.52,-0.278 0.982,-0.6 1.386,-0.968l-1.306,-3.06l-0.124,0.97l-0.131,1.284l-0.114,0.924l-0.025,0.158l-0.051,0.142c0,0.028 -0.055,0.111 -0.165,0.246c-0.027,0.036 -0.077,0.079 -0.151,0.13c-0.073,0.05 -0.167,0.09 -0.282,0.119c-0.217,0.054 -0.429,0.028 -0.635,-0.078c-0.203,-0.122 -0.338,-0.315 -0.404,-0.579c-0.027,-0.108 -0.038,-0.21 -0.033,-0.304l0.095,-1.297c0.079,-0.862 0.214,-1.586 0.405,-2.173c0.245,-0.745 0.543,-1.233 0.895,-1.465l0.216,-0.087l0.15,-0.048c0.521,-0.131 1.049,0.053 1.584,0.552c0.372,0.367 0.692,0.898 0.96,1.594l0.737,1.865c0.171,-0.122 0.335,-0.203 0.49,-0.242c0.136,-0.034 0.266,-0.03 0.391,0.01c0.105,0.017 0.214,0.108 0.328,0.274c0.069,0.105 0.115,0.201 0.137,0.289Z" style="fill:#8c8cf9;fill-rule:nonzero;"/><path d="M36.718,12.301l0.026,0.187c0.022,0.088 0.029,0.148 0.022,0.178c0.04,0.242 -0.033,0.498 -0.217,0.767l-0.279,0.307c-0.1,0.09 -0.211,0.15 -0.333,0.18l-0.124,0.021c-0.227,0.014 -0.442,-0.04 -0.645,-0.162c-0.154,-0.127 -0.259,-0.302 -0.315,-0.525l-0.031,-0.208c-0.032,-0.129 -0.035,-0.215 -0.01,-0.257c0.005,-0.238 0.094,-0.473 0.266,-0.703c0.178,-0.21 0.388,-0.346 0.632,-0.407l0.145,-0.025c0.455,-0.049 0.743,0.166 0.863,0.647Zm-2.152,0.539l0.026,0.188c0.022,0.088 0.029,0.147 0.022,0.178c0.009,0.206 -0.066,0.466 -0.225,0.779c-0.052,0.078 -0.145,0.18 -0.279,0.307l-0.337,0.16l-0.125,0.021c-0.22,0.012 -0.431,-0.043 -0.634,-0.165c-0.154,-0.127 -0.258,-0.295 -0.31,-0.505l-0.041,-0.205l-0.003,-0.269c-0.014,-0.227 0.072,-0.454 0.256,-0.68c0.184,-0.226 0.398,-0.369 0.642,-0.43l0.134,-0.023c0.462,-0.051 0.754,0.164 0.874,0.644Zm2.177,3.349c0.285,1.137 0.111,2.429 -0.523,3.875c-0.633,1.446 -1.471,2.3 -2.513,2.561l-0.274,0.069l-0.486,-1.939l0.274,-0.069c0.663,-0.166 1.146,-0.704 1.45,-1.615c0.217,-0.716 0.297,-1.57 0.243,-2.563c-0.024,-0.268 0.031,-0.487 0.164,-0.657c0.134,-0.17 0.292,-0.278 0.475,-0.324c0.25,-0.062 0.495,-0.03 0.736,0.096c0.237,0.114 0.388,0.302 0.454,0.566Z" style="fill:#8c8cf9;fill-rule:nonzero;"/><path d="M50.923,18.31l-0.396,0.099c-0.325,0.081 -0.703,0.066 -1.133,-0.045c-0.431,-0.111 -0.776,-0.268 -1.035,-0.469c-0.169,0.618 -0.41,1.221 -0.722,1.81c-0.152,0.283 -0.348,0.6 -0.587,0.951c-0.239,0.351 -0.487,0.649 -0.742,0.893l-0.223,0.185l-0.244,0.104c-0.264,0.067 -0.525,0.013 -0.784,-0.159c-0.247,-0.183 -0.403,-0.402 -0.468,-0.66c-0.066,-0.264 0.005,-0.512 0.213,-0.743c0.218,-0.192 0.405,-0.393 0.561,-0.605l0.261,-0.335l0.276,-0.404c0.315,-0.496 0.57,-1.027 0.766,-1.594c0.131,-0.422 0.233,-1.008 0.303,-1.759c0.02,-0.552 0.016,-1.173 -0.014,-1.863c-0.02,-0.254 0.03,-0.463 0.151,-0.626c0.121,-0.164 0.283,-0.271 0.486,-0.322c0.243,-0.061 0.496,-0.03 0.756,0.091c0.258,0.108 0.415,0.278 0.473,0.508l0.018,0.157l-0,0.432l0.031,0.51l0.061,0.502l0.089,0.442c0.098,0.392 0.229,0.683 0.391,0.873c0.176,0.186 0.4,0.245 0.671,0.177l0.355,-0.089l0.486,1.939Z" style="fill:#8c8cf9;fill-rule:nonzero;"/><path d="M60.088,10.499c0.065,0.257 0.103,0.533 0.116,0.829c0.013,0.295 -0.01,0.612 -0.069,0.95c-0.118,0.735 -0.433,1.486 -0.945,2.255c-0.533,0.802 -1.179,1.45 -1.941,1.943c-0.03,0.309 -0.129,0.589 -0.296,0.84c-0.081,0.107 -0.166,0.193 -0.254,0.258c-0.088,0.065 -0.189,0.112 -0.304,0.141c-0.359,0.09 -0.669,-0.084 -0.93,-0.522c-0.399,0.1 -0.816,0.107 -1.251,0.022c-0.435,-0.085 -0.803,-0.27 -1.104,-0.554c-0.217,0.313 -0.516,0.654 -0.898,1.023l-0.505,0.354c-0.178,0.094 -0.314,0.154 -0.409,0.178l-0.659,0.165l-0.486,-1.939l0.406,-0.102c0.487,-0.122 0.887,-0.477 1.2,-1.066l0.192,-0.437l0.122,-0.505c0.065,-0.341 0.103,-0.706 0.113,-1.097c-0.015,-0.233 0.043,-0.431 0.175,-0.594c0.132,-0.162 0.303,-0.27 0.512,-0.323c0.224,-0.056 0.455,-0.038 0.693,0.053c0.212,0.098 0.346,0.259 0.402,0.482l0.02,0.168l0.011,0.429l0.038,0.799l0.036,0.272c0.054,0.216 0.198,0.403 0.432,0.56c0.223,0.117 0.487,0.137 0.792,0.061c-0.029,-0.345 -0.037,-0.649 -0.024,-0.911c0.003,-0.303 0.035,-0.624 0.094,-0.962c0.02,-0.293 0.069,-0.654 0.149,-1.084l0.101,-0.5l0.149,-0.523c0.188,-0.63 0.456,-1.194 0.806,-1.691c0.35,-0.498 0.718,-0.795 1.104,-0.892c0.501,-0.125 0.984,-0.013 1.449,0.338c0.466,0.351 0.787,0.878 0.963,1.582Zm-1.769,0.217c-0.045,-0.183 -0.129,-0.259 -0.251,-0.228c-0.102,0.025 -0.219,0.144 -0.353,0.358c-0.101,0.198 -0.2,0.449 -0.296,0.754l-0.149,0.652l-0.109,0.686c-0.051,0.401 -0.076,0.817 -0.076,1.248c0.32,-0.274 0.582,-0.622 0.785,-1.043c0.204,-0.422 0.342,-0.832 0.415,-1.232l0.063,-0.695c0.015,-0.198 0.005,-0.365 -0.029,-0.5Z" style="fill:#8c8cf9;fill-rule:nonzero;"/><path d="M66.899,11.543l0.028,0.112c0.013,0.054 0.015,0.089 0.005,0.106l-0.01,0.219c-0.107,1.235 -0.357,2.333 -0.749,3.295c-0.296,0.915 -0.806,1.978 -1.531,3.188c-0.112,0.158 -0.237,0.297 -0.376,0.418c-0.138,0.121 -0.289,0.202 -0.451,0.243c-0.244,0.061 -0.48,0.023 -0.708,-0.114c-0.217,-0.147 -0.354,-0.332 -0.409,-0.555c-0.043,-0.17 -0.053,-0.311 -0.031,-0.424c0.034,-0.095 0.107,-0.247 0.22,-0.455c0.584,-0.858 1.052,-1.752 1.405,-2.682c0.353,-0.93 0.605,-1.939 0.757,-3.027c0.012,-0.212 0.099,-0.424 0.261,-0.638c0.152,-0.167 0.323,-0.275 0.512,-0.322c0.197,-0.05 0.409,-0.018 0.639,0.093c0.229,0.112 0.375,0.293 0.438,0.543Z" style="fill:#8c8cf9;fill-rule:nonzero;"/><path d="M73.815,10.554c0.154,0.616 -0.073,1.604 -0.681,2.965c-0.227,0.503 -0.532,1.061 -0.918,1.676c-0.213,0.355 -0.581,0.865 -1.106,1.528l-0.238,0.211l-0.264,0.109c-0.257,0.065 -0.518,0.015 -0.782,-0.149c-0.106,-0.081 -0.205,-0.175 -0.297,-0.281c-0.066,-0.12 -0.121,-0.24 -0.165,-0.358c-0.022,-0.088 -0.023,-0.221 -0.003,-0.399c0.017,-0.076 0.085,-0.193 0.203,-0.353l0.464,-0.558l0.454,-0.6l0.416,-0.622c0.14,-0.186 0.277,-0.414 0.411,-0.685c0.547,-0.943 0.78,-1.577 0.699,-1.902c-0.037,-0.149 -0.493,-0.459 -1.366,-0.93l-0.922,-0.449c-0.262,-0.129 -0.425,-0.318 -0.487,-0.568c-0.068,-0.271 -0.021,-0.542 0.141,-0.813c0.178,-0.267 0.398,-0.434 0.662,-0.5c0.203,-0.051 0.4,-0.028 0.589,0.068l0.472,0.249l0.493,0.286l0.437,0.279l0.485,0.342c0.767,0.563 1.201,1.048 1.303,1.454Z" style="fill:#8c8cf9;fill-rule:nonzero;"/><path d="M79.933,1.047l0.176,0.744l0.336,1.555l0.4,1.853l0.135,0.581c0.032,0.129 0.062,0.337 0.091,0.624l0.102,0.795l0.057,0.655l0.094,0.893l0.038,0.368l0.034,0.52c0.03,0.295 -0.041,0.571 -0.213,0.83c-0.086,0.116 -0.187,0.216 -0.302,0.303l-0.317,0.155c-0.223,0.056 -0.415,0.025 -0.574,-0.094c-0.191,-0.132 -0.327,-0.36 -0.409,-0.685l-0.058,-0.276l-0.011,-0.3l-0.092,-1.142l-0.109,-0.868l-0.082,-0.627l-0.173,-1.165l-0.171,-0.982l-0.188,-0.881l-0.166,-0.746l-0.211,-0.972l-0.216,-0.949c-0.079,-0.311 -0.053,-0.576 0.075,-0.796c0.129,-0.219 0.308,-0.357 0.538,-0.415c0.237,-0.059 0.468,-0.013 0.693,0.139c0.247,0.183 0.422,0.477 0.523,0.883Z" style="fill:#8c8cf9;fill-rule:nonzero;"/><path d="M86.383,4.695l0.063,0.297l0.026,0.361c0.031,0.467 -0.119,0.961 -0.448,1.482c-0.146,0.224 -0.318,0.42 -0.517,0.588c-0.198,0.169 -0.406,0.28 -0.622,0.334l-0.209,0.031c-0.507,0.041 -0.917,-0.087 -1.228,-0.382l-0.163,-0.175l-0.193,-0.254l-0.127,-0.249l-0.102,-0.32l-0.066,-0.393l0.01,-0.391c0.047,-0.501 0.243,-0.951 0.589,-1.351c0.346,-0.399 0.729,-0.651 1.148,-0.757l0.219,-0.033c0.859,-0.071 1.399,0.333 1.62,1.212Zm-1.419,0.669c-0.02,-0.081 -0.07,-0.137 -0.15,-0.168c-0.091,-0.02 -0.169,0.021 -0.233,0.124c-0.064,0.102 -0.112,0.222 -0.142,0.359l-0.002,0.162l-0,0.13c0.025,0.101 0.075,0.157 0.15,0.167c0.052,0.009 0.135,-0.034 0.248,-0.127c0.081,-0.106 0.13,-0.23 0.145,-0.37l-0.016,-0.277Z" style="fill:#8c8cf9;fill-rule:nonzero;"/></g></g></svg>