<?xml version="1.0" encoding="UTF-8" standalone="no"?><!DOCTYPE svg PUBLIC "-//W3C//DTD SVG 1.1//EN" "http://www.w3.org/Graphics/SVG/1.1/DTD/svg11.dtd"><svg width="100%" height="100%" viewBox="0 0 356 91" version="1.1" xmlns="http://www.w3.org/2000/svg" xmlns:xlink="http://www.w3.org/1999/xlink" xml:space="preserve" xmlns:serif="http://www.serif.com/" style="fill-rule:evenodd;clip-rule:evenodd;stroke-linecap:round;stroke-linejoin:round;stroke-miterlimit:10;"><g><g><path d="M331.576,74.517l19.7,0.3l1.7,-20" style="fill:none;fill-rule:nonzero;stroke:#7703fc;stroke-width:3px;"/><path d="M340.176,63.617c-16.8,-11.2 -88.1,-56.4 -145.7,-28.9c-4.7,2.2 -9.5,5 -14.2,8.5" style="fill:none;fill-rule:nonzero;stroke:#7703fc;stroke-width:3px;stroke-linecap:butt;stroke-linejoin:miter;stroke-dasharray:12.27,12.27;"/></g><g><path d="M9.912,19.589l-0.721,0c-0.805,0 -1.529,-0.213 -2.172,-0.639c-0.642,-0.427 -1.168,-1.007 -1.577,-1.739c-0.456,0.18 -0.985,0.27 -1.585,0.27c-1.082,-0 -2.001,-0.307 -2.758,-0.919c-0.324,-0.289 -0.594,-0.631 -0.811,-1.027l-0.216,-0.631l-0.072,-0.649c-0,-0.649 0.156,-1.225 0.469,-1.73c0.324,-0.661 0.889,-1.358 1.694,-2.091c0.624,-0.552 1.333,-1.057 2.126,-1.513l2.055,-1.046c0.108,-0.072 0.24,-0.24 0.396,-0.504l0.234,-0.541c0.241,-0.42 0.637,-0.631 1.19,-0.631c0.396,0 0.757,0.127 1.081,0.379c0.324,0.252 0.487,0.589 0.487,1.009c-0,0.18 -0.054,0.415 -0.163,0.703l-0.811,1.946l-0.54,1.64l-0.325,1.406c-0.072,0.384 -0.108,0.727 -0.108,1.027c0,0.577 0.114,1.033 0.343,1.37c0.24,0.312 0.618,0.468 1.135,0.468l0.649,0l-0,3.442Zm-4.704,-7.803l-0.378,0.234c-0.12,0.06 -0.229,0.138 -0.325,0.235l-0.324,0.234l-0.216,0.234c-0.289,0.252 -0.541,0.559 -0.757,0.919l-0.072,0.271c-0,0.144 0.072,0.288 0.216,0.432l0.505,0.18c0.132,0 0.309,-0.036 0.531,-0.108c0.222,-0.072 0.4,-0.162 0.532,-0.27l-0,-0.343l0.072,-0.666l0.216,-1.352Z" style="fill:#7703fc;fill-rule:nonzero;"/><path d="M18.274,3.226l-0,0.198c-0,0.108 -0.012,0.18 -0.036,0.216l-0.054,0.361c-0.072,0.54 -0.349,1.03 -0.829,1.469c-0.481,0.438 -0.997,0.657 -1.55,0.657l-0.27,-0.018c-0.541,-0.072 -0.956,-0.288 -1.244,-0.648c-0.24,-0.349 -0.36,-0.757 -0.36,-1.226l0.018,-0.541l0.126,-0.468c0.108,-0.505 0.405,-0.928 0.892,-1.271c0.486,-0.342 0.988,-0.513 1.505,-0.513l0.306,0.018c0.997,0.168 1.496,0.757 1.496,1.766Zm-0.613,6.884c0,2.018 -0.832,4.103 -2.496,6.254c-1.664,2.15 -3.421,3.225 -5.271,3.225l-0.487,0l0,-3.442l0.487,0c1.177,0 2.21,-0.697 3.099,-2.09c0.661,-1.106 1.154,-2.499 1.478,-4.181c0.072,-0.457 0.256,-0.799 0.55,-1.027c0.294,-0.229 0.604,-0.343 0.928,-0.343c0.445,0 0.841,0.156 1.189,0.469c0.349,0.288 0.523,0.666 0.523,1.135Z" style="fill:#7703fc;fill-rule:nonzero;"/><path d="M27.897,12.921c0,0.661 -0.174,1.172 -0.522,1.532c-0.325,0.385 -0.733,0.577 -1.226,0.577c-0.396,-0 -0.751,-0.174 -1.063,-0.523c-0.3,-0.372 -0.451,-0.883 -0.451,-1.532c0,-1.369 -0.183,-2.955 -0.549,-4.757c-0.367,-1.802 -0.802,-3.406 -1.307,-4.812l-0.126,-0.45l-0.018,-0.289c-0,-0.444 0.138,-0.823 0.414,-1.135l0.487,-0.325c0.132,-0.072 0.312,-0.108 0.541,-0.108c0.36,0 0.697,0.132 1.009,0.397c0.252,0.18 0.511,0.619 0.775,1.315c0.228,0.637 0.468,1.382 0.721,2.235l0.685,2.883c0.42,2.079 0.63,3.743 0.63,4.992Zm5.587,-10.38l-0.018,0.27l-0.252,2.289l-0.054,1.73l-0.073,2.451l-0.054,2.487c0,2.091 -0.684,3.893 -2.054,5.406c-1.466,1.61 -3.304,2.415 -5.515,2.415c-1.105,0 -1.892,-0.066 -2.36,-0.198l-0.811,-0.234l-0.559,-0.325c-0.3,-0.228 -0.535,-0.492 -0.703,-0.792l-0.144,-0.397l-0.054,-0.27l-0.036,-0.271c-0,-0.384 0.12,-0.714 0.36,-0.991c0.241,-0.276 0.577,-0.414 1.009,-0.414l1.965,0.306l0.955,0.108l0.991,0.036c1.045,0 1.931,-0.462 2.658,-1.387c0.727,-0.926 1.091,-2.037 1.091,-3.334l0.036,-2.65l0.036,-2.342l0.054,-2.361l0.018,-0.505c-0,-0.192 0.024,-0.366 0.072,-0.522l0.144,-0.883c0.036,-0.253 0.231,-0.493 0.586,-0.721c0.354,-0.229 0.73,-0.343 1.126,-0.343c0.36,0 0.733,0.126 1.117,0.379c0.313,0.216 0.469,0.57 0.469,1.063Z" style="fill:#7703fc;fill-rule:nonzero;"/><path d="M41.63,2.523c-0,0.312 -0.06,0.649 -0.181,1.009l-1.117,3.262l-1.334,4.199c-0.432,1.622 -0.648,2.697 -0.648,3.226c-0,0.721 0.06,1.201 0.18,1.442c0.168,0.324 0.511,0.486 1.027,0.486l0.973,0l0,3.442l-1.027,0c-1.189,0 -2.193,-0.36 -3.009,-1.081c-0.854,-0.853 -1.28,-2.108 -1.28,-3.766c-0,-0.926 0.198,-2.235 0.595,-3.929c0.144,-0.757 0.33,-1.49 0.558,-2.199c0.06,-0.252 0.154,-0.582 0.28,-0.991c0.126,-0.408 0.285,-0.901 0.477,-1.478l0.613,-1.856l0.703,-1.982c0.168,-0.421 0.417,-0.748 0.748,-0.982c0.33,-0.235 0.67,-0.352 1.018,-0.352c0.396,0 0.733,0.132 1.009,0.397c0.276,0.24 0.415,0.624 0.415,1.153Z" style="fill:#7703fc;fill-rule:nonzero;"/><path d="M56.533,11.263c-0.18,1.875 -0.829,3.713 -1.946,5.515c-1.177,1.874 -2.361,2.811 -3.55,2.811l-0.631,-0.054l-0.342,-0.09l-0.307,-0.18l-0.612,-0.433c-0.193,-0.168 -0.355,-0.354 -0.487,-0.558c-0.264,0.264 -0.703,0.582 -1.316,0.955c-0.516,0.24 -0.967,0.36 -1.351,0.36c-0.517,0 -0.949,-0.12 -1.298,-0.36l-0.558,-0.379l-0.523,-0.558c-0.853,0.865 -1.742,1.297 -2.667,1.297l-0.919,0l-0,-3.442l0.468,0c0.481,0 1.028,-0.438 1.64,-1.315c0.613,-0.877 1.112,-1.929 1.496,-3.154c0.096,-0.361 0.294,-0.649 0.595,-0.865l0.504,-0.216l0.541,-0.072c0.336,-0 0.676,0.105 1.018,0.315c0.343,0.21 0.514,0.496 0.514,0.856c-0,0.12 -0.024,0.246 -0.072,0.378l-0.541,1.442c-0.396,0.997 -0.595,1.688 -0.595,2.073c0,0.372 0.157,0.558 0.469,0.558c0.42,0 0.919,-0.582 1.496,-1.748c0.348,-0.865 0.6,-1.766 0.757,-2.703c0.036,-0.324 0.198,-0.625 0.486,-0.901c0.289,-0.216 0.637,-0.325 1.045,-0.325c0.433,0 0.823,0.115 1.172,0.343c0.324,0.252 0.486,0.571 0.486,0.955l-0.036,0.288l-0.504,1.857l-0.271,0.991l-0.072,0.613c0,0.42 0.163,0.63 0.487,0.63c0.432,0 0.949,-0.649 1.55,-1.946l0.27,-0.739l0.252,-0.811l0.343,-1.658c0.036,-0.36 0.186,-0.637 0.45,-0.829c0.265,-0.192 0.535,-0.288 0.811,-0.288c0.265,-0 0.481,0.03 0.649,0.09c0.168,0.06 0.367,0.174 0.595,0.342c0.336,0.265 0.504,0.583 0.504,0.955Z" style="fill:#7703fc;fill-rule:nonzero;"/><path d="M85.566,7.281l-0.036,0.342c-0,0.156 -0.012,0.252 -0.036,0.288c-0.072,0.361 -0.306,0.769 -0.703,1.226c-0.384,0.36 -0.787,0.541 -1.207,0.541l-0.217,-0.018c-0.396,-0.073 -0.732,-0.253 -1.009,-0.541c-0.204,-0.276 -0.306,-0.613 -0.306,-1.009c-0,-0.193 0.012,-0.313 0.036,-0.361l0.09,-0.45c0.108,-0.421 0.354,-0.772 0.739,-1.055c0.384,-0.282 0.793,-0.423 1.225,-0.423l0.253,0.018c0.781,0.132 1.171,0.613 1.171,1.442Zm-3.821,-0l-0.036,0.342c0,0.156 -0.012,0.252 -0.036,0.288c-0.072,0.361 -0.306,0.769 -0.702,1.226c-0.409,0.348 -0.823,0.523 -1.244,0.523l-0.198,-0.019c-0.397,-0.072 -0.721,-0.234 -0.973,-0.486c-0.217,-0.252 -0.325,-0.595 -0.325,-1.027l0.018,-0.361l0.09,-0.468c0.109,-0.421 0.358,-0.772 0.748,-1.055c0.391,-0.282 0.802,-0.423 1.235,-0.423l0.234,0.018c0.793,0.132 1.189,0.613 1.189,1.442Zm15.571,12.308l-1.225,0c-1.274,0 -2.355,-0.444 -3.244,-1.333c-0.721,-0.745 -1.238,-1.832 -1.55,-3.262l-2.091,2.415c-1.153,1.153 -2.517,2.078 -4.091,2.775c-1.994,0.853 -4.571,1.454 -7.731,1.802l-1.405,0.072l-0.595,0.018c-3.064,0 -5.383,-0.709 -6.956,-2.126c-1.37,-1.25 -2.055,-2.986 -2.055,-5.208c0,-1.13 0.499,-2.493 1.496,-4.091c0.793,-1.298 1.562,-2.247 2.307,-2.848l0.504,-0.306l0.469,-0.27l0.883,-0.181c0.312,0 0.61,0.106 0.892,0.316c0.282,0.21 0.423,0.507 0.423,0.892c0,0.516 -0.264,1.093 -0.792,1.73l-1.586,1.676c-0.793,0.997 -1.19,1.892 -1.19,2.685c0,1.262 0.535,2.259 1.604,2.992c0.517,0.36 1.301,0.651 2.352,0.874c1.051,0.222 2.208,0.333 3.469,0.333c3.136,0 5.749,-0.535 7.839,-1.604c1.839,-0.901 3.382,-2.228 4.632,-3.983c0.985,-1.345 1.814,-2.997 2.487,-4.955c0.132,-0.385 0.36,-0.673 0.685,-0.865c0.324,-0.217 0.679,-0.325 1.063,-0.325c0.432,0 0.787,0.12 1.063,0.361c0.289,0.216 0.433,0.546 0.433,0.991l-0,0.198c-0,0.12 -0.012,0.192 -0.036,0.216l-0.108,0.397l-0.397,1.207l-0.306,1.045l-0.289,1.37c-0.072,0.433 -0.108,0.799 -0.108,1.099c0,0.745 0.15,1.328 0.451,1.748c0.108,0.157 0.318,0.331 0.631,0.523l0.432,0.126l0.523,0.054l1.117,0l0,3.442Z" style="fill:#7703fc;fill-rule:nonzero;"/><path d="M105.606,1.784l-0,0.198c-0,0.108 -0.012,0.181 -0.036,0.217l-0.054,0.36c-0.072,0.541 -0.349,1.03 -0.829,1.469c-0.481,0.438 -0.991,0.658 -1.532,0.658l-0.288,-0.018c-0.493,-0.073 -0.901,-0.289 -1.226,-0.649c-0.252,-0.349 -0.378,-0.757 -0.378,-1.226l0.018,-0.54l0.126,-0.469c0.144,-0.48 0.453,-0.898 0.928,-1.252c0.475,-0.355 0.97,-0.532 1.487,-0.532l0.288,0.018c0.997,0.168 1.496,0.757 1.496,1.766Zm5.118,12.922c0,0.756 -0.631,1.513 -1.892,2.27l-1.009,0.487l-0.829,0.378c-0.697,0.313 -1.779,0.679 -3.244,1.1l-1.226,0.27l-1.207,0.234l-1.081,0.108l-1.064,0.036l-2.216,0l-0,-3.442l2.378,0c1.274,0 2.403,-0.123 3.388,-0.369c0.986,-0.246 1.893,-0.592 2.722,-1.036l-0.739,-5.479l-0.487,0.793l-0.576,1.063l-1.55,2.866l-0.361,0.468c-0.108,0.132 -0.24,0.241 -0.396,0.325l-0.415,0.198c-0.132,0.036 -0.288,0.054 -0.468,0.054c-0.349,-0 -0.667,-0.126 -0.955,-0.379c-0.241,-0.264 -0.361,-0.6 -0.361,-1.009l0.108,-0.667l0.289,-0.847l0.198,-0.486l0.36,-0.757c0.577,-1.213 1.178,-2.289 1.802,-3.226c0.793,-1.117 1.544,-1.754 2.253,-1.91l0.343,-0.054l0.342,-0.018c1.009,-0 1.796,0.498 2.361,1.496c0.396,0.756 0.703,1.814 0.919,3.171l-0,0.703l0.072,0.487l0.126,0.955c0.072,0.589 0.174,0.949 0.307,1.081c0.336,-0.132 0.642,-0.198 0.919,-0.198c0.24,-0 0.456,0.06 0.648,0.18c0.169,0.072 0.313,0.27 0.433,0.595c0.072,0.18 0.108,0.366 0.108,0.559Z" style="fill:#7703fc;fill-rule:nonzero;"/><path d="M117.212,3.334c-0,5.731 -0.709,10.645 -2.127,14.742c-0.144,0.432 -0.411,0.789 -0.802,1.072c-0.39,0.282 -0.79,0.423 -1.198,0.423c-0.373,0 -0.679,-0.117 -0.919,-0.351c-0.241,-0.234 -0.361,-0.598 -0.361,-1.09c0,-0.397 0.09,-0.847 0.271,-1.352c0.576,-1.586 1.063,-3.748 1.459,-6.488c0.397,-2.739 0.595,-5.304 0.595,-7.695c0,-0.505 0.135,-0.904 0.406,-1.198c0.27,-0.295 0.597,-0.442 0.982,-0.442c0.408,0 0.793,0.219 1.153,0.658c0.361,0.438 0.541,1.012 0.541,1.721Z" style="fill:#7703fc;fill-rule:nonzero;"/><path d="M130.764,16.219c-0,1.094 -0.793,2.649 -2.379,4.668c-0.589,0.745 -1.334,1.55 -2.235,2.415c-0.504,0.504 -1.333,1.201 -2.487,2.09l-0.486,0.253l-0.487,0.072c-0.456,-0 -0.871,-0.193 -1.243,-0.577c-0.144,-0.18 -0.271,-0.378 -0.379,-0.595c-0.06,-0.228 -0.102,-0.45 -0.126,-0.667c0,-0.156 0.054,-0.378 0.162,-0.666c0.06,-0.12 0.223,-0.289 0.487,-0.505l1.009,-0.739l1.009,-0.811l0.956,-0.865c0.312,-0.252 0.636,-0.576 0.973,-0.973c1.309,-1.346 1.964,-2.307 1.964,-2.883c0,-0.265 -0.631,-0.974 -1.892,-2.127l-1.352,-1.135c-0.384,-0.325 -0.577,-0.709 -0.577,-1.154c0,-0.48 0.193,-0.913 0.577,-1.297c0.409,-0.373 0.847,-0.559 1.316,-0.559c0.36,0 0.679,0.12 0.955,0.361l0.685,0.612l0.703,0.685l0.612,0.649l0.667,0.775c1.045,1.261 1.568,2.252 1.568,2.973Z" style="fill:#7703fc;fill-rule:nonzero;"/><path d="M143.469,19.589l-1.153,0l-0.487,-0.09c-0.18,-0.024 -0.396,-0.096 -0.649,-0.216c-0.372,-0.12 -0.799,-0.372 -1.279,-0.757c-0.553,1.129 -1.352,2.439 -2.397,3.929c-0.288,0.444 -0.709,1.015 -1.262,1.712l-1.189,1.46c-0.156,0.192 -0.345,0.339 -0.568,0.441c-0.222,0.102 -0.441,0.153 -0.657,0.153c-0.469,0 -0.895,-0.165 -1.28,-0.495c-0.384,-0.331 -0.577,-0.718 -0.577,-1.163c0,-0.348 0.151,-0.679 0.451,-0.991c1.261,-1.333 2.529,-3.046 3.802,-5.136c0.529,-0.877 1.04,-1.838 1.532,-2.883c0.168,-0.349 0.337,-0.739 0.505,-1.172c0.168,-0.432 0.354,-0.949 0.559,-1.55c0.096,-0.444 0.306,-0.79 0.63,-1.036c0.325,-0.246 0.673,-0.369 1.046,-0.369c0.336,-0 0.678,0.141 1.027,0.423c0.348,0.282 0.522,0.64 0.522,1.072l0,0.199c0,0.084 -0.012,0.15 -0.036,0.198c-0.144,0.673 -0.216,1.213 -0.216,1.622c0,0.324 0.072,0.625 0.216,0.901c0.144,0.204 0.421,0.306 0.829,0.306l0.631,0l0,3.442Z" style="fill:#7703fc;fill-rule:nonzero;"/><path d="M151.2,10.11c0,2.018 -0.832,4.103 -2.496,6.254c-1.664,2.15 -3.421,3.225 -5.271,3.225l-0.487,0l0,-3.442l0.487,0c1.177,0 2.211,-0.697 3.1,-2.09c0.661,-1.106 1.153,-2.499 1.477,-4.181c0.073,-0.457 0.256,-0.799 0.55,-1.027c0.294,-0.229 0.604,-0.343 0.928,-0.343c0.445,0 0.841,0.156 1.19,0.469c0.348,0.288 0.522,0.666 0.522,1.135Zm0.469,15.535l-0,0.198c-0,0.096 -0.012,0.156 -0.036,0.18c-0,0.192 -0.03,0.342 -0.09,0.451c-0.108,0.384 -0.361,0.726 -0.757,1.027c-0.397,0.3 -0.799,0.45 -1.208,0.45l-0.252,-0.018c-0.781,-0.132 -1.171,-0.612 -1.171,-1.441l0.018,-0.325l0.054,-0.306c0.072,-0.433 0.294,-0.835 0.667,-1.208c0.18,-0.18 0.372,-0.312 0.576,-0.396l0.325,-0.09l0.36,-0.036l0.216,0.018c0.433,0.072 0.757,0.252 0.973,0.54c0.217,0.253 0.325,0.571 0.325,0.956Zm-3.839,0.018l0,0.198c0,0.096 -0.012,0.156 -0.036,0.18l-0.072,0.433c-0.108,0.348 -0.36,0.702 -0.757,1.063l-0.252,0.144l-0.379,0.162c-0.18,0.072 -0.378,0.108 -0.594,0.108l-0.235,-0.018c-0.792,-0.132 -1.189,-0.612 -1.189,-1.441l0.018,-0.325l0.054,-0.306c0.072,-0.445 0.304,-0.847 0.694,-1.208c0.39,-0.36 0.802,-0.54 1.234,-0.54l0.199,0.018c0.384,0.072 0.721,0.252 1.009,0.54c0.204,0.241 0.306,0.571 0.306,0.992Zm1.37,3.838l-0,0.198c-0,0.097 -0.012,0.157 -0.036,0.181c-0,0.156 -0.024,0.3 -0.072,0.432c-0.108,0.373 -0.361,0.721 -0.757,1.045c-0.397,0.289 -0.805,0.433 -1.226,0.433l-0.234,-0.018c-0.793,-0.132 -1.189,-0.613 -1.189,-1.442l0.018,-0.342l0.054,-0.289c0.072,-0.432 0.3,-0.841 0.685,-1.225l0.432,-0.324c0.252,-0.145 0.523,-0.217 0.811,-0.217l0.198,0.018c0.457,0.072 0.787,0.247 0.992,0.523c0.216,0.252 0.324,0.595 0.324,1.027Z" style="fill:#7703fc;fill-rule:nonzero;"/><path d="M167.456,2.523c-0,0.312 -0.06,0.649 -0.181,1.009l-1.117,3.262l-1.333,4.199c-0.433,1.622 -0.649,2.697 -0.649,3.226c-0,0.721 0.06,1.201 0.18,1.442c0.168,0.324 0.511,0.486 1.027,0.486l0.973,0l0,3.442l-1.027,0c-1.189,0 -2.192,-0.36 -3.009,-1.081c-0.853,-0.853 -1.28,-2.108 -1.28,-3.766c0,-0.926 0.198,-2.235 0.595,-3.929c0.144,-0.757 0.33,-1.49 0.558,-2.199c0.06,-0.252 0.154,-0.582 0.28,-0.991c0.126,-0.408 0.285,-0.901 0.477,-1.478l0.613,-1.856l0.703,-1.982c0.168,-0.421 0.417,-0.748 0.748,-0.982c0.33,-0.235 0.67,-0.352 1.018,-0.352c0.396,0 0.733,0.132 1.009,0.397c0.277,0.24 0.415,0.624 0.415,1.153Z" style="fill:#7703fc;fill-rule:nonzero;"/><path d="M174.106,10.11c-0,2.018 -0.832,4.103 -2.496,6.254c-1.664,2.15 -3.421,3.225 -5.272,3.225l-0.486,0l-0,-3.442l0.486,0c1.178,0 2.211,-0.697 3.1,-2.09c0.661,-1.106 1.153,-2.499 1.478,-4.181c0.072,-0.457 0.255,-0.799 0.549,-1.027c0.295,-0.229 0.604,-0.343 0.929,-0.343c0.444,0 0.841,0.156 1.189,0.469c0.348,0.288 0.523,0.666 0.523,1.135Zm-2.127,16.003l0,0.198c0,0.109 -0.012,0.181 -0.036,0.217l-0.054,0.36c-0.072,0.493 -0.354,0.97 -0.847,1.433c-0.493,0.462 -1.003,0.694 -1.532,0.694l-0.288,-0.018c-0.469,-0.073 -0.877,-0.289 -1.226,-0.649c-0.24,-0.349 -0.36,-0.763 -0.36,-1.244l-0,-0.396l0.018,-0.325l0.126,-0.27c0.108,-0.516 0.409,-0.949 0.901,-1.297l0.703,-0.379c0.132,-0.036 0.261,-0.066 0.387,-0.09c0.127,-0.024 0.262,-0.036 0.406,-0.036l0.306,0.018c0.997,0.18 1.496,0.775 1.496,1.784Z" style="fill:#7703fc;fill-rule:nonzero;"/><path d="M42.981,34.649l0,0.198c0,0.109 -0.012,0.181 -0.036,0.217l-0.054,0.36c-0.072,0.469 -0.363,0.94 -0.874,1.415c-0.511,0.474 -1.012,0.712 -1.505,0.712l-0.288,-0.018c-0.517,-0.072 -0.919,-0.271 -1.207,-0.595c-0.253,-0.324 -0.379,-0.757 -0.379,-1.298l0.018,-0.486l0.108,-0.505c0.144,-0.528 0.454,-0.961 0.928,-1.297c0.475,-0.337 0.97,-0.505 1.487,-0.505l0.306,0.018c0.998,0.18 1.496,0.775 1.496,1.784Zm1.965,16.94l-1.424,0c-0.721,0 -1.694,-0.18 -2.92,-0.54c-0.913,-0.277 -1.736,-0.631 -2.469,-1.064l-0.684,0.289l-0.919,0.36l-1.046,0.307l-0.829,0.198c-1.658,0.3 -3.099,0.45 -4.325,0.45c-1.646,0 -3.106,-0.126 -4.379,-0.378c-1.274,-0.252 -2.379,-0.667 -3.316,-1.244c-1.574,-0.937 -2.361,-2.168 -2.361,-3.694c0,-0.156 0.006,-0.309 0.018,-0.46c0.012,-0.15 0.036,-0.297 0.072,-0.441l0.144,-0.577l0.235,-0.486c0.288,-0.649 0.781,-1.304 1.477,-1.965l0.289,-0.252l0.36,-0.18l0.343,-0.126l0.306,-0.036c0.36,-0 0.694,0.147 1,0.441c0.307,0.295 0.46,0.658 0.46,1.09c-0,0.469 -0.216,0.92 -0.649,1.352c-0.433,0.397 -0.649,0.817 -0.649,1.262c0,0.588 0.559,1.135 1.676,1.64c0.529,0.144 1.214,0.288 2.055,0.432l1.351,0.126l1.568,0.054c1.406,0 2.574,-0.066 3.505,-0.198c0.931,-0.132 1.601,-0.288 2.01,-0.469c-0.144,-0.396 -0.217,-0.829 -0.217,-1.297c0,-0.637 0.109,-1.307 0.325,-2.009c0.216,-0.703 0.553,-1.349 1.009,-1.938c0.505,-0.745 1.111,-1.309 1.82,-1.694c0.709,-0.42 1.43,-0.631 2.163,-0.631l0.414,0c0.12,0 0.253,0.024 0.397,0.073c0.24,0.036 0.498,0.132 0.775,0.288c0.528,0.252 0.946,0.64 1.252,1.162c0.307,0.523 0.46,1.109 0.46,1.757l-0,0.235c-0,0.084 -0.012,0.21 -0.036,0.378c-0,0.168 -0.054,0.391 -0.162,0.667c-0.109,0.408 -0.295,0.823 -0.559,1.243l-0.397,0.595l-0.45,0.595l-0.505,0.54l-0.612,0.577l0.756,0.108l0.847,0.018l1.821,0l-0,3.442Zm-3.911,-8.109c-0,-0.108 -0.048,-0.193 -0.144,-0.253l-0.217,-0.054c-0.096,0 -0.222,0.042 -0.378,0.126l-0.342,0.217l-0.289,0.27c-0.12,0.144 -0.312,0.505 -0.576,1.081l-0.145,0.649l-0.054,0.667l0.505,-0.288l0.487,-0.451l0.414,-0.523l0.378,-0.54l0.253,-0.469c0.072,-0.144 0.108,-0.288 0.108,-0.432Z" style="fill:#7703fc;fill-rule:nonzero;"/><path d="M53.398,51.589l-0.703,0c-0.817,0 -1.556,-0.204 -2.217,-0.612c-0.528,-0.337 -0.961,-0.781 -1.297,-1.334c-0.505,0.541 -1.25,1.027 -2.235,1.46c-0.853,0.324 -1.55,0.486 -2.091,0.486l-0.468,0l-0,-3.442l0.541,0c0.901,0 1.763,-0.429 2.586,-1.288c0.823,-0.859 1.396,-1.908 1.721,-3.145c0.072,-0.36 0.264,-0.64 0.576,-0.838c0.313,-0.198 0.649,-0.297 1.01,-0.297c0.372,-0 0.714,0.102 1.027,0.306c0.276,0.204 0.414,0.493 0.414,0.865l-0.036,0.288l-0.414,1.694l-0.108,0.613l-0.036,0.487c-0,0.42 0.084,0.739 0.252,0.955c0.144,0.24 0.42,0.36 0.829,0.36l0.649,0l-0,3.442Zm-0.793,3.587l-0.036,0.324c-0,0.156 -0.012,0.258 -0.036,0.306c-0.072,0.373 -0.307,0.775 -0.703,1.208l-0.595,0.396c-0.204,0.108 -0.414,0.162 -0.631,0.162l-0.198,-0.018c-0.384,-0.072 -0.721,-0.258 -1.009,-0.558c-0.204,-0.24 -0.306,-0.571 -0.306,-0.991l0.036,-0.397l0.072,-0.414c0.108,-0.397 0.354,-0.751 0.739,-1.064c0.408,-0.276 0.823,-0.414 1.243,-0.414l0.234,0.018c0.793,0.132 1.19,0.613 1.19,1.442Zm-3.839,-0l-0.036,0.324c0,0.156 -0.012,0.258 -0.036,0.306c-0.072,0.457 -0.306,0.853 -0.703,1.19l-0.594,0.396c-0.205,0.108 -0.415,0.162 -0.631,0.162l-0.216,-0.018c-0.445,-0.072 -0.769,-0.246 -0.974,-0.522c-0.216,-0.252 -0.324,-0.583 -0.324,-0.991l0.018,-0.397l0.108,-0.432c0.108,-0.433 0.355,-0.787 0.739,-1.064c0.384,-0.276 0.793,-0.414 1.225,-0.414l0.253,0.018c0.781,0.132 1.171,0.613 1.171,1.442Z" style="fill:#7703fc;fill-rule:nonzero;"/><path d="M63.273,34.829l0,0.199c0,0.108 -0.012,0.18 -0.036,0.216l-0.054,0.36c-0.072,0.505 -0.354,0.985 -0.847,1.442c-0.492,0.457 -1.003,0.685 -1.532,0.685l-0.27,-0.018c-0.54,-0.072 -0.943,-0.283 -1.207,-0.631l-0.289,-0.577c-0.072,-0.216 -0.108,-0.444 -0.108,-0.684l0,-0.379l0.018,-0.27l0.126,-0.343c0.109,-0.516 0.409,-0.949 0.902,-1.297c0.228,-0.156 0.45,-0.27 0.666,-0.343l0.451,-0.126l0.378,-0.036l0.307,0.018c0.997,0.18 1.495,0.775 1.495,1.784Zm2.073,16.76l-1.244,0c-0.456,0 -1.165,-0.09 -2.126,-0.27c-0.589,-0.108 -1.15,-0.252 -1.685,-0.432c-0.535,-0.181 -1.06,-0.421 -1.577,-0.721c-0.577,0.312 -1.394,0.666 -2.451,1.063l-1.189,0.27l-0.757,0.09l-1.388,0l0,-3.442l1.244,0l0.504,-0.018l0.631,-0.108c0.432,-0.096 0.805,-0.21 1.117,-0.342l-0.144,-0.595l-0.054,-0.811l0.054,-1.009c0.036,-0.301 0.132,-0.649 0.288,-1.045c0.181,-0.625 0.514,-1.298 1.001,-2.019c0.486,-0.721 1.084,-1.273 1.793,-1.658c0.709,-0.42 1.429,-0.631 2.162,-0.631l0.343,0l0.468,0.073c0.229,0.036 0.487,0.132 0.775,0.288c0.529,0.252 0.946,0.64 1.253,1.162c0.306,0.523 0.459,1.109 0.459,1.757l0,0.235c0,0.084 -0.012,0.21 -0.036,0.378c0,0.168 -0.054,0.391 -0.162,0.667c-0.108,0.396 -0.288,0.811 -0.541,1.243l-0.378,0.559l-0.487,0.631l-0.504,0.54l-0.631,0.577l0.775,0.108l0.847,0.018l1.64,0l-0,3.442Zm-3.731,-8.109c0,-0.108 -0.048,-0.193 -0.144,-0.253l-0.234,-0.054c-0.084,0 -0.21,0.039 -0.378,0.117c-0.169,0.079 -0.385,0.25 -0.649,0.514c-0.216,0.264 -0.397,0.619 -0.541,1.063l-0.144,0.649l-0.054,0.667c0.372,-0.18 0.703,-0.427 0.991,-0.739l0.793,-1.063l0.252,-0.469c0.072,-0.144 0.108,-0.288 0.108,-0.432Z" style="fill:#7703fc;fill-rule:nonzero;"/><path d="M73.564,33.874l-0,0.198c-0,0.109 -0.012,0.181 -0.036,0.217l-0.054,0.36c-0.072,0.541 -0.349,1.03 -0.829,1.469c-0.481,0.438 -0.998,0.658 -1.55,0.658l-0.271,-0.018c-0.492,-0.072 -0.901,-0.289 -1.225,-0.649c-0.252,-0.349 -0.378,-0.757 -0.378,-1.226l0.018,-0.54l0.126,-0.469c0.144,-0.54 0.456,-0.976 0.937,-1.306c0.48,-0.331 0.967,-0.496 1.46,-0.496l0.306,0.018c0.997,0.18 1.496,0.775 1.496,1.784Zm5.01,12.814c-0,0.264 -0.084,0.504 -0.253,0.72l-0.576,0.577c-0,0.108 0.09,0.162 0.27,0.162l0.505,0l-0,3.442l-0.757,0l-0.865,-0.054l-0.379,-0.072l-0.378,-0.126c-0.433,-0.144 -0.745,-0.366 -0.937,-0.667l-0.271,-0.468l-0.234,-0.469l-1.568,0.631l-1.658,0.559c-0.841,0.204 -1.61,0.366 -2.307,0.486l-1.099,0.126l-1.045,0.054l-2.217,0l0,-3.442l2.379,0c1.274,0 2.403,-0.123 3.388,-0.369c0.985,-0.246 1.892,-0.592 2.721,-1.036l-0.901,-5.659l-0.612,1.568l-0.757,2.09l-0.577,1.496l-0.108,0.252l-0.144,0.217c-0.012,0.048 -0.138,0.162 -0.379,0.342c-0.06,0.048 -0.162,0.099 -0.306,0.153c-0.144,0.054 -0.319,0.081 -0.523,0.081c-0.384,0 -0.727,-0.132 -1.027,-0.396c-0.288,-0.289 -0.432,-0.667 -0.432,-1.136c-0,-0.192 0.024,-0.366 0.072,-0.522l0.702,-2.127c0.493,-1.405 1.022,-2.559 1.586,-3.46c0.721,-1.141 1.424,-1.832 2.109,-2.072l0.396,-0.054l0.271,-0.018c0.925,-0 1.73,0.528 2.415,1.585c0.468,0.769 0.78,1.791 0.937,3.064l0.45,3.424c0.337,-0.132 0.643,-0.198 0.919,-0.198c0.241,-0 0.457,0.06 0.649,0.18c0.168,0.072 0.312,0.27 0.433,0.595c0.072,0.204 0.108,0.384 0.108,0.541Z" style="fill:#7703fc;fill-rule:nonzero;"/><path d="M87.999,35.604l-0.036,0.325c-0,0.156 -0.012,0.258 -0.036,0.306c-0.036,0.421 -0.264,0.817 -0.685,1.189l-0.595,0.397c-0.204,0.108 -0.414,0.162 -0.63,0.162l-0.217,-0.018c-0.384,-0.072 -0.721,-0.252 -1.009,-0.541c-0.204,-0.276 -0.306,-0.612 -0.306,-1.009l0.036,-0.36c-0,-0.228 0.03,-0.373 0.09,-0.433c0.108,-0.396 0.354,-0.751 0.739,-1.063c0.384,-0.276 0.793,-0.414 1.225,-0.414l0.253,0.018c0.78,0.108 1.171,0.588 1.171,1.441Zm-3.821,0l-0.036,0.325c0,0.156 -0.012,0.258 -0.036,0.306c-0.072,0.348 -0.306,0.751 -0.703,1.207c-0.12,0.109 -0.318,0.241 -0.594,0.397l-0.631,0.126l-0.216,-0.018c-0.373,-0.072 -0.703,-0.252 -0.991,-0.541c-0.205,-0.276 -0.307,-0.6 -0.307,-0.973l0.018,-0.36l0.108,-0.451c0.072,-0.384 0.31,-0.727 0.712,-1.027c0.403,-0.3 0.82,-0.45 1.253,-0.45l0.234,0.018c0.793,0.108 1.189,0.588 1.189,1.441Zm2.235,6.506c0,2.018 -0.832,4.103 -2.496,6.254c-1.664,2.15 -3.421,3.225 -5.271,3.225l-0.487,0l0,-3.442l0.487,0c1.177,0 2.21,-0.697 3.099,-2.09c0.661,-1.106 1.154,-2.499 1.478,-4.181c0.072,-0.457 0.256,-0.799 0.55,-1.027c0.294,-0.229 0.604,-0.343 0.928,-0.343c0.445,0 0.841,0.156 1.189,0.469c0.349,0.288 0.523,0.666 0.523,1.135Z" style="fill:#7703fc;fill-rule:nonzero;"/><path d="M109.21,51.589l-0.703,0c-0.576,0 -1.201,-0.183 -1.874,-0.549c-0.673,-0.367 -1.183,-0.772 -1.532,-1.217c-0.54,0.961 -1.195,1.868 -1.964,2.721c-0.372,0.409 -0.832,0.857 -1.379,1.343c-0.546,0.487 -1.084,0.88 -1.613,1.181l-0.45,0.216l-0.451,0.072c-0.468,-0 -0.883,-0.198 -1.243,-0.595c-0.337,-0.408 -0.505,-0.841 -0.505,-1.297c0,-0.469 0.223,-0.853 0.667,-1.154c0.445,-0.228 0.841,-0.486 1.189,-0.775l0.577,-0.45l0.631,-0.559c0.733,-0.697 1.382,-1.478 1.946,-2.343c0.397,-0.648 0.811,-1.586 1.244,-2.811c0.264,-0.913 0.516,-1.952 0.757,-3.118c0.072,-0.432 0.243,-0.76 0.513,-0.982c0.271,-0.222 0.586,-0.333 0.946,-0.333c0.433,-0 0.841,0.156 1.226,0.468c0.384,0.289 0.576,0.637 0.576,1.045l-0.036,0.271l-0.18,0.721l-0.162,0.865l-0.108,0.865l-0.036,0.775c-0,0.696 0.096,1.237 0.288,1.622c0.216,0.384 0.565,0.576 1.045,0.576l0.631,0l0,3.442Z" style="fill:#7703fc;fill-rule:nonzero;"/><path d="M127.79,42.38c0,0.457 -0.051,0.934 -0.153,1.433c-0.102,0.499 -0.273,1.018 -0.513,1.559c-0.505,1.177 -1.346,2.301 -2.523,3.37c-1.226,1.117 -2.578,1.928 -4.055,2.433c-0.18,0.504 -0.463,0.931 -0.847,1.279c-0.18,0.145 -0.358,0.253 -0.532,0.325c-0.174,0.072 -0.363,0.108 -0.568,0.108c-0.636,-0 -1.081,-0.421 -1.333,-1.262c-0.709,0 -1.409,-0.162 -2.1,-0.486c-0.691,-0.325 -1.228,-0.787 -1.613,-1.388c-0.492,0.433 -1.135,0.877 -1.928,1.334l-0.991,0.378c-0.336,0.084 -0.589,0.126 -0.757,0.126l-1.171,0l-0,-3.442l0.72,0c0.866,0 1.682,-0.426 2.451,-1.279l0.505,-0.649l0.414,-0.793c0.253,-0.541 0.469,-1.135 0.649,-1.784c0.072,-0.397 0.253,-0.703 0.541,-0.919c0.288,-0.216 0.619,-0.325 0.991,-0.325c0.397,0 0.775,0.127 1.135,0.379c0.313,0.252 0.469,0.577 0.469,0.973l-0.036,0.288l-0.162,0.721l-0.271,1.352l-0.054,0.468c0,0.385 0.163,0.757 0.487,1.118c0.324,0.288 0.757,0.432 1.298,0.432c0.096,-0.588 0.21,-1.099 0.342,-1.532c0.132,-0.504 0.318,-1.027 0.559,-1.567c0.156,-0.481 0.39,-1.064 0.702,-1.749l0.379,-0.792l0.468,-0.811c0.577,-0.974 1.262,-1.803 2.055,-2.487c0.793,-0.685 1.532,-1.028 2.217,-1.028c0.889,0 1.648,0.391 2.279,1.172c0.631,0.781 0.946,1.796 0.946,3.045Zm-3.045,-0.378c-0,-0.324 -0.108,-0.487 -0.325,-0.487c-0.18,0 -0.426,0.151 -0.739,0.451c-0.252,0.288 -0.522,0.667 -0.81,1.135l-0.523,1.027l-0.469,1.1c-0.252,0.649 -0.468,1.333 -0.648,2.054c0.648,-0.324 1.231,-0.796 1.748,-1.414c0.516,-0.619 0.919,-1.247 1.207,-1.884l0.397,-1.135c0.108,-0.324 0.162,-0.607 0.162,-0.847Z" style="fill:#7703fc;fill-rule:nonzero;"/><path d="M138.729,46.976l0,0.198c0,0.096 -0.012,0.156 -0.036,0.18l-0.108,0.361c-0.697,2.018 -1.574,3.748 -2.631,5.19c-0.877,1.406 -2.174,2.967 -3.893,4.686c-0.252,0.216 -0.519,0.396 -0.801,0.54c-0.283,0.144 -0.568,0.216 -0.857,0.216c-0.432,0 -0.81,-0.162 -1.135,-0.486c-0.3,-0.337 -0.45,-0.703 -0.45,-1.099c-0,-0.301 0.042,-0.541 0.126,-0.721c0.096,-0.145 0.282,-0.367 0.558,-0.667c1.334,-1.19 2.49,-2.487 3.47,-3.893c0.979,-1.405 1.823,-2.985 2.532,-4.739c0.108,-0.349 0.342,-0.667 0.702,-0.956c0.325,-0.216 0.655,-0.324 0.992,-0.324c0.348,0 0.69,0.141 1.027,0.424c0.336,0.282 0.504,0.645 0.504,1.09Z" style="fill:#7703fc;fill-rule:nonzero;"/><path d="M150.696,48.219c-0,1.094 -0.793,2.649 -2.379,4.668c-0.589,0.745 -1.334,1.55 -2.235,2.415c-0.504,0.504 -1.333,1.201 -2.487,2.09l-0.486,0.253l-0.487,0.072c-0.456,-0 -0.871,-0.193 -1.243,-0.577c-0.145,-0.18 -0.271,-0.378 -0.379,-0.595c-0.06,-0.228 -0.102,-0.45 -0.126,-0.667c-0,-0.156 0.054,-0.378 0.162,-0.666c0.06,-0.12 0.222,-0.289 0.487,-0.505l1.009,-0.739l1.009,-0.811l0.955,-0.865c0.313,-0.252 0.637,-0.576 0.973,-0.973c1.31,-1.346 1.965,-2.307 1.965,-2.883c-0,-0.265 -0.631,-0.974 -1.892,-2.127l-1.352,-1.135c-0.385,-0.325 -0.577,-0.709 -0.577,-1.154c0,-0.48 0.192,-0.913 0.577,-1.297c0.408,-0.373 0.847,-0.559 1.315,-0.559c0.361,0 0.679,0.12 0.956,0.361l0.684,0.612l0.703,0.685l0.613,0.649l0.667,0.775c1.045,1.261 1.568,2.252 1.568,2.973Z" style="fill:#7703fc;fill-rule:nonzero;"/><path d="M164.897,34.901l-0.018,1.316l-0.091,2.739l-0.108,3.262l-0.018,1.027c0,0.229 -0.036,0.589 -0.108,1.082l-0.162,1.369l-0.18,1.118l-0.216,1.531l-0.091,0.631l-0.162,0.883c-0.072,0.505 -0.306,0.937 -0.703,1.298c-0.192,0.156 -0.402,0.282 -0.63,0.378l-0.595,0.126c-0.397,0 -0.703,-0.132 -0.919,-0.396c-0.264,-0.3 -0.397,-0.739 -0.397,-1.316l0.018,-0.486l0.109,-0.505l0.324,-1.946l0.18,-1.496l0.126,-1.081l0.199,-2.019l0.126,-1.712l0.054,-1.549l0.036,-1.316l0.054,-1.712l0.036,-1.676c-0,-0.553 0.153,-0.985 0.459,-1.298c0.307,-0.312 0.664,-0.468 1.073,-0.468c0.42,-0 0.787,0.174 1.099,0.522c0.336,0.409 0.505,0.974 0.505,1.694Z" style="fill:#7703fc;fill-rule:nonzero;"/><path d="M174.142,43.696l-0.018,0.523l-0.109,0.612c-0.144,0.793 -0.6,1.556 -1.369,2.289c-0.337,0.312 -0.706,0.568 -1.108,0.766c-0.403,0.198 -0.796,0.297 -1.181,0.297l-0.36,-0.036c-0.865,-0.144 -1.496,-0.528 -1.893,-1.153l-0.198,-0.361l-0.216,-0.504l-0.108,-0.469l-0.036,-0.576l0.054,-0.685l0.18,-0.649c0.288,-0.817 0.805,-1.487 1.55,-2.009c0.745,-0.523 1.49,-0.784 2.235,-0.784l0.378,0.036c1.466,0.24 2.199,1.141 2.199,2.703Zm-2.65,0.523c0,-0.145 -0.06,-0.259 -0.18,-0.343c-0.144,-0.072 -0.291,-0.036 -0.441,0.108c-0.15,0.144 -0.28,0.325 -0.388,0.541l-0.072,0.27l-0.054,0.217c0,0.18 0.06,0.294 0.18,0.342c0.084,0.036 0.241,-0 0.469,-0.108c0.18,-0.144 0.312,-0.331 0.396,-0.559l0.09,-0.468Z" style="fill:#7703fc;fill-rule:nonzero;"/><path d="M52.929,83.589l-0.703,0c-0.576,0 -1.201,-0.183 -1.874,-0.549c-0.673,-0.367 -1.183,-0.772 -1.532,-1.217c-0.54,0.961 -1.195,1.868 -1.964,2.721c-0.373,0.409 -0.832,0.857 -1.379,1.343c-0.546,0.487 -1.084,0.88 -1.613,1.181l-0.45,0.216l-0.451,0.072c-0.468,-0 -0.883,-0.198 -1.243,-0.595c-0.337,-0.408 -0.505,-0.841 -0.505,-1.297c0,-0.469 0.222,-0.853 0.667,-1.154c0.444,-0.228 0.841,-0.486 1.189,-0.775l0.577,-0.45l0.631,-0.559c0.733,-0.697 1.381,-1.478 1.946,-2.343c0.397,-0.648 0.811,-1.586 1.244,-2.811c0.264,-0.913 0.516,-1.952 0.757,-3.118c0.072,-0.432 0.243,-0.76 0.513,-0.982c0.27,-0.222 0.586,-0.333 0.946,-0.333c0.433,-0 0.841,0.156 1.226,0.468c0.384,0.289 0.576,0.637 0.576,1.045l-0.036,0.271l-0.18,0.721l-0.162,0.865l-0.108,0.865l-0.036,0.775c-0,0.696 0.096,1.237 0.288,1.622c0.216,0.384 0.565,0.576 1.045,0.576l0.631,0l0,3.442Z" style="fill:#7703fc;fill-rule:nonzero;"/><path d="M61.435,83.589l-0.703,0c-0.817,0 -1.555,-0.204 -2.216,-0.612c-0.529,-0.337 -0.961,-0.781 -1.298,-1.334c-0.504,0.541 -1.249,1.027 -2.234,1.46c-0.853,0.324 -1.55,0.486 -2.091,0.486l-0.468,0l-0,-3.442l0.54,0c0.901,0 1.763,-0.429 2.586,-1.288c0.823,-0.859 1.397,-1.908 1.721,-3.145c0.072,-0.36 0.265,-0.64 0.577,-0.838c0.312,-0.198 0.649,-0.297 1.009,-0.297c0.373,-0 0.715,0.102 1.027,0.306c0.277,0.204 0.415,0.493 0.415,0.865l-0.036,0.288l-0.415,1.694l-0.108,0.613l-0.036,0.487c0,0.42 0.084,0.739 0.252,0.955c0.145,0.24 0.421,0.36 0.829,0.36l0.649,0l0,3.442Zm-0.793,3.587l-0.036,0.324c0,0.156 -0.012,0.258 -0.036,0.306c-0.072,0.373 -0.306,0.775 -0.703,1.208l-0.594,0.396c-0.205,0.108 -0.415,0.162 -0.631,0.162l-0.198,-0.018c-0.385,-0.072 -0.721,-0.258 -1.01,-0.558c-0.204,-0.24 -0.306,-0.571 -0.306,-0.991l0.036,-0.397l0.072,-0.414c0.108,-0.397 0.355,-0.751 0.739,-1.064c0.409,-0.276 0.823,-0.414 1.244,-0.414l0.234,0.018c0.793,0.132 1.189,0.613 1.189,1.442Zm-3.838,-0l-0.036,0.324c-0,0.156 -0.012,0.258 -0.036,0.306c-0.072,0.457 -0.307,0.853 -0.703,1.19l-0.595,0.396c-0.204,0.108 -0.414,0.162 -0.631,0.162l-0.216,-0.018c-0.444,-0.072 -0.769,-0.246 -0.973,-0.522c-0.216,-0.252 -0.324,-0.583 -0.324,-0.991l0.018,-0.397l0.108,-0.432c0.108,-0.433 0.354,-0.787 0.739,-1.064c0.384,-0.276 0.793,-0.414 1.225,-0.414l0.252,0.018c0.781,0.132 1.172,0.613 1.172,1.442Z" style="fill:#7703fc;fill-rule:nonzero;"/><path d="M69.311,69.424l-0,0.199c-0,0.108 -0.012,0.18 -0.036,0.216l-0.054,0.36c-0.073,0.469 -0.364,0.941 -0.875,1.415c-0.51,0.475 -1.012,0.712 -1.504,0.712l-0.289,-0.018c-0.516,-0.072 -0.919,-0.27 -1.207,-0.595c-0.252,-0.324 -0.379,-0.751 -0.379,-1.279c0,-0.349 0.043,-0.685 0.127,-1.01c0.144,-0.528 0.453,-0.961 0.928,-1.297c0.474,-0.336 0.97,-0.505 1.486,-0.505l0.307,0.018c0.997,0.181 1.496,0.775 1.496,1.784Zm0.666,14.165l-0.702,0c-0.817,0 -1.556,-0.204 -2.217,-0.612c-0.529,-0.337 -0.961,-0.781 -1.298,-1.334c-0.504,0.541 -1.249,1.027 -2.234,1.46c-0.853,0.324 -1.55,0.486 -2.091,0.486l-0.468,0l-0,-3.442l0.54,0c0.901,0 1.763,-0.429 2.586,-1.288c0.823,-0.859 1.397,-1.908 1.721,-3.145c0.073,-0.36 0.265,-0.64 0.577,-0.838c0.313,-0.198 0.649,-0.297 1.009,-0.297c0.373,-0 0.715,0.102 1.028,0.306c0.276,0.204 0.414,0.493 0.414,0.865l-0.036,0.288l-0.414,1.694l-0.109,0.613l-0.036,0.487c0,0.42 0.084,0.739 0.253,0.955c0.144,0.24 0.42,0.36 0.829,0.36l0.648,0l0,3.442Z" style="fill:#7703fc;fill-rule:nonzero;"/><path d="M92.612,54.413l-0.054,0.504c-0.036,0.216 -0.102,0.379 -0.198,0.487c-0.072,0.18 -0.18,0.36 -0.324,0.54c-0.108,0.181 -0.259,0.349 -0.451,0.505c-0.829,0.865 -1.772,1.736 -2.829,2.613c-0.721,0.589 -1.838,1.442 -3.352,2.559c-2.151,1.502 -4.662,3.07 -7.533,4.704c-0.301,0.12 -0.547,0.18 -0.739,0.18c-0.445,-0 -0.859,-0.132 -1.244,-0.396c-0.372,-0.301 -0.558,-0.637 -0.558,-1.01c-0,-0.264 0.081,-0.501 0.243,-0.712c0.162,-0.21 0.514,-0.495 1.054,-0.856c0.949,-0.492 2.037,-1.141 3.262,-1.946c1.046,-0.685 2.298,-1.556 3.758,-2.613c1.459,-1.057 2.664,-1.988 3.613,-2.793c0.517,-0.445 0.967,-0.847 1.352,-1.208c0.432,-0.408 0.811,-0.793 1.135,-1.153c0.18,-0.216 0.421,-0.403 0.721,-0.559l0.342,-0.144l0.487,-0.09c0.36,-0 0.67,0.132 0.928,0.396c0.258,0.265 0.387,0.595 0.387,0.992Zm-14.651,14.633l-0.018,1.099l-0.072,1.766l-0.018,0.703l-0,0.469l-0.072,0.342l-0,0.505l-0.072,0.36l-0.181,1.136c-0.348,2.595 -1.132,4.604 -2.351,6.028c-1.22,1.424 -2.659,2.135 -4.317,2.135l-1.351,0l-0,-3.442l1.189,0c0.901,0 1.622,-0.399 2.163,-1.198c0.541,-0.799 0.991,-2.184 1.351,-4.154l0.145,-1.46l0.054,-1.207l0.126,-3.064c-0,-0.577 0.168,-1.039 0.504,-1.388c0.373,-0.336 0.787,-0.504 1.244,-0.504c0.432,-0 0.82,0.165 1.162,0.495c0.343,0.331 0.514,0.79 0.514,1.379Z" style="fill:#7703fc;fill-rule:nonzero;"/><path d="M112.508,71.281l-0.036,0.342c0,0.156 -0.012,0.252 -0.036,0.288c-0.072,0.361 -0.306,0.769 -0.703,1.226c-0.384,0.36 -0.787,0.541 -1.207,0.541l-0.216,-0.018c-0.397,-0.073 -0.733,-0.253 -1.01,-0.541c-0.204,-0.276 -0.306,-0.613 -0.306,-1.009c-0,-0.193 0.012,-0.313 0.036,-0.361l0.09,-0.45c0.108,-0.421 0.355,-0.772 0.739,-1.055c0.384,-0.282 0.793,-0.423 1.225,-0.423l0.253,0.018c0.781,0.132 1.171,0.613 1.171,1.442Zm-3.82,-0l-0.036,0.342c-0,0.156 -0.012,0.252 -0.036,0.288c-0.073,0.361 -0.307,0.769 -0.703,1.226c-0.409,0.348 -0.823,0.523 -1.244,0.523l-0.198,-0.019c-0.397,-0.072 -0.721,-0.234 -0.973,-0.486c-0.216,-0.252 -0.325,-0.595 -0.325,-1.027l0.018,-0.361l0.091,-0.468c0.108,-0.421 0.357,-0.772 0.747,-1.055c0.391,-0.282 0.802,-0.423 1.235,-0.423l0.234,0.018c0.793,0.132 1.19,0.613 1.19,1.442Zm15.57,12.308l-1.225,0c-1.274,0 -2.355,-0.444 -3.244,-1.333c-0.721,-0.745 -1.238,-1.832 -1.55,-3.262l-2.091,2.415c-1.153,1.153 -2.517,2.078 -4.09,2.775c-1.995,0.853 -4.572,1.454 -7.732,1.802l-1.405,0.072l-0.595,0.018c-3.064,0 -5.382,-0.709 -6.956,-2.126c-1.37,-1.25 -2.055,-2.986 -2.055,-5.208c0,-1.13 0.499,-2.493 1.496,-4.091c0.793,-1.298 1.562,-2.247 2.307,-2.848l0.504,-0.306l0.469,-0.27l0.883,-0.181c0.312,0 0.61,0.106 0.892,0.316c0.282,0.21 0.424,0.507 0.424,0.892c-0,0.516 -0.265,1.093 -0.793,1.73l-1.586,1.676c-0.793,0.997 -1.19,1.892 -1.19,2.685c0,1.262 0.535,2.259 1.604,2.992c0.517,0.36 1.301,0.651 2.352,0.874c1.051,0.222 2.208,0.333 3.469,0.333c3.136,0 5.749,-0.535 7.84,-1.604c1.838,-0.901 3.382,-2.228 4.631,-3.983c0.985,-1.345 1.814,-2.997 2.487,-4.955c0.132,-0.385 0.36,-0.673 0.685,-0.865c0.324,-0.217 0.679,-0.325 1.063,-0.325c0.433,0 0.787,0.12 1.063,0.361c0.289,0.216 0.433,0.546 0.433,0.991l-0,0.198c-0,0.12 -0.012,0.192 -0.036,0.216l-0.108,0.397l-0.397,1.207l-0.306,1.045l-0.288,1.37c-0.073,0.433 -0.109,0.799 -0.109,1.099c0,0.745 0.151,1.328 0.451,1.748c0.108,0.157 0.318,0.331 0.631,0.523l0.432,0.126l0.523,0.054l1.117,0l0,3.442Z" style="fill:#7703fc;fill-rule:nonzero;"/><path d="M133.882,64.27l-0,0.217c-0,0.12 -0.012,0.192 -0.036,0.216l-0.054,0.342c-0.073,0.541 -0.349,1.03 -0.829,1.469c-0.481,0.439 -0.992,0.658 -1.532,0.658l-0.289,-0.018c-0.588,-0.096 -1.003,-0.31 -1.243,-0.64c-0.24,-0.33 -0.361,-0.742 -0.361,-1.234l0.018,-0.541l0.127,-0.469c0.144,-0.456 0.45,-0.883 0.919,-1.279c0.48,-0.337 0.979,-0.505 1.496,-0.505l0.288,0.018c0.997,0.168 1.496,0.757 1.496,1.766Zm1.91,11.768c-0,0.313 -0.168,0.619 -0.505,0.919c-0.264,0.265 -0.847,0.595 -1.748,0.992c-0.817,1.537 -2.21,2.919 -4.181,4.145c-1.646,0.997 -3.015,1.495 -4.109,1.495l-1.351,0l-0,-3.442l1.135,0c0.433,0 1,-0.117 1.703,-0.351c0.703,-0.234 1.325,-0.55 1.865,-0.946l-0.36,0.018c-0.601,-0 -1.168,-0.253 -1.703,-0.757c-0.535,-0.505 -0.802,-1.087 -0.802,-1.748c-0,-1.406 0.895,-2.89 2.685,-4.452c1.742,-1.501 3.31,-2.252 4.704,-2.252c0.324,-0 0.564,0.03 0.721,0.09c0.504,0.18 0.907,0.51 1.207,0.991c0.252,0.469 0.378,1.015 0.378,1.64l0,0.306c0,0.205 -0.012,0.331 -0.036,0.379l-0.108,0.558l-0.072,0.379l-0.072,0.306l-0.072,0.343l-0.18,0.378c0.601,0.204 0.901,0.541 0.901,1.009Zm-3.568,-2.577c-0,-0.108 -0.054,-0.198 -0.163,-0.27c-0.336,-0.108 -0.955,0.174 -1.856,0.847c-0.468,0.324 -0.814,0.616 -1.036,0.874c-0.222,0.258 -0.333,0.514 -0.333,0.766c-0,0.132 0.162,0.198 0.486,0.198c0.265,0 0.511,-0.024 0.739,-0.072l0.559,-0.162l0.414,-0.18c0.168,-0.132 0.433,-0.451 0.793,-0.955l0.289,-0.577c0.072,-0.18 0.108,-0.337 0.108,-0.469Z" style="fill:#7703fc;fill-rule:nonzero;"/><path d="M143.902,66.523c-0,0.312 -0.06,0.649 -0.181,1.009l-1.117,3.262l-1.334,4.199c-0.432,1.622 -0.648,2.697 -0.648,3.226c-0,0.721 0.06,1.201 0.18,1.442c0.168,0.324 0.51,0.486 1.027,0.486l0.973,0l0,3.442l-1.027,0c-1.189,0 -2.193,-0.36 -3.01,-1.081c-0.853,-0.853 -1.279,-2.108 -1.279,-3.766c-0,-0.926 0.198,-2.235 0.595,-3.929c0.144,-0.757 0.33,-1.49 0.558,-2.199c0.06,-0.252 0.153,-0.582 0.28,-0.991c0.126,-0.408 0.285,-0.901 0.477,-1.478l0.613,-1.856l0.703,-1.982c0.168,-0.421 0.417,-0.748 0.748,-0.982c0.33,-0.235 0.669,-0.352 1.018,-0.352c0.396,0 0.733,0.132 1.009,0.397c0.276,0.24 0.415,0.624 0.415,1.153Z" style="fill:#7703fc;fill-rule:nonzero;"/><path d="M150.552,74.11c-0,2.018 -0.832,4.103 -2.496,6.254c-1.664,2.15 -3.422,3.225 -5.272,3.225l-0.486,0l-0,-3.442l0.486,0c1.178,0 2.211,-0.697 3.1,-2.09c0.661,-1.106 1.153,-2.499 1.478,-4.181c0.072,-0.457 0.255,-0.799 0.549,-1.027c0.295,-0.229 0.604,-0.343 0.928,-0.343c0.445,0 0.841,0.156 1.19,0.469c0.348,0.288 0.523,0.666 0.523,1.135Zm0.666,13.066l-0.036,0.324c0,0.156 -0.012,0.258 -0.036,0.306c-0.072,0.373 -0.306,0.775 -0.703,1.208l-0.594,0.396c-0.205,0.108 -0.415,0.162 -0.631,0.162l-0.198,-0.018c-0.385,-0.072 -0.721,-0.258 -1.01,-0.558c-0.204,-0.24 -0.306,-0.571 -0.306,-0.991l0.036,-0.397l0.072,-0.414c0.108,-0.397 0.355,-0.751 0.739,-1.064c0.409,-0.276 0.823,-0.414 1.244,-0.414l0.234,0.018c0.793,0.132 1.189,0.613 1.189,1.442Zm-3.838,-0l-0.036,0.324c-0,0.156 -0.012,0.258 -0.036,0.306c-0.072,0.457 -0.307,0.853 -0.703,1.19l-0.595,0.396c-0.204,0.108 -0.414,0.162 -0.631,0.162l-0.216,-0.018c-0.444,-0.072 -0.769,-0.246 -0.973,-0.522c-0.216,-0.252 -0.324,-0.583 -0.324,-0.991l0.018,-0.397l0.108,-0.432c0.108,-0.433 0.354,-0.787 0.739,-1.064c0.384,-0.276 0.793,-0.414 1.225,-0.414l0.252,0.018c0.781,0.132 1.172,0.613 1.172,1.442Z" style="fill:#7703fc;fill-rule:nonzero;"/><path d="M162.157,78.976l0,0.198c0,0.096 -0.012,0.156 -0.036,0.18l-0.108,0.361c-0.697,2.018 -1.574,3.748 -2.631,5.19c-0.877,1.406 -2.175,2.967 -3.893,4.686c-0.252,0.216 -0.519,0.396 -0.802,0.54c-0.282,0.144 -0.567,0.216 -0.856,0.216c-0.432,0 -0.811,-0.162 -1.135,-0.486c-0.3,-0.337 -0.45,-0.703 -0.45,-1.099c-0,-0.301 0.042,-0.541 0.126,-0.721c0.096,-0.145 0.282,-0.367 0.558,-0.667c1.334,-1.19 2.49,-2.487 3.469,-3.893c0.98,-1.405 1.824,-2.985 2.533,-4.739c0.108,-0.349 0.342,-0.667 0.702,-0.956c0.325,-0.216 0.655,-0.324 0.992,-0.324c0.348,0 0.69,0.141 1.027,0.424c0.336,0.282 0.504,0.645 0.504,1.09Z" style="fill:#7703fc;fill-rule:nonzero;"/><path d="M174.124,80.219c-0,1.094 -0.793,2.649 -2.379,4.668c-0.589,0.745 -1.334,1.55 -2.235,2.415c-0.504,0.504 -1.333,1.201 -2.487,2.09l-0.486,0.253l-0.487,0.072c-0.457,-0 -0.871,-0.193 -1.243,-0.577c-0.145,-0.18 -0.271,-0.378 -0.379,-0.595c-0.06,-0.228 -0.102,-0.45 -0.126,-0.667c-0,-0.156 0.054,-0.378 0.162,-0.666c0.06,-0.12 0.222,-0.289 0.487,-0.505l1.009,-0.739l1.009,-0.811l0.955,-0.865c0.313,-0.252 0.637,-0.576 0.973,-0.973c1.31,-1.346 1.965,-2.307 1.965,-2.883c-0,-0.265 -0.631,-0.974 -1.893,-2.127l-1.351,-1.135c-0.385,-0.325 -0.577,-0.709 -0.577,-1.154c0,-0.48 0.192,-0.913 0.577,-1.297c0.408,-0.373 0.847,-0.559 1.315,-0.559c0.361,0 0.679,0.12 0.956,0.361l0.684,0.612l0.703,0.685l0.613,0.649l0.667,0.775c1.045,1.261 1.568,2.252 1.568,2.973Z" style="fill:#7703fc;fill-rule:nonzero;"/></g></g></svg>