<?xml version="1.0" encoding="UTF-8" standalone="no"?><!DOCTYPE svg PUBLIC "-//W3C//DTD SVG 1.1//EN" "http://www.w3.org/Graphics/SVG/1.1/DTD/svg11.dtd"><svg width="100%" height="100%" viewBox="0 0 465 162" version="1.1" xmlns="http://www.w3.org/2000/svg" xmlns:xlink="http://www.w3.org/1999/xlink" xml:space="preserve" xmlns:serif="http://www.serif.com/" style="fill-rule:evenodd;clip-rule:evenodd;stroke-miterlimit:10;"><g><g><path d="M322.95,78.495l-0,0.198c-0,0.108 -0.012,0.18 -0.036,0.216l-0.054,0.361c-0.072,0.468 -0.364,0.94 -0.874,1.414c-0.511,0.475 -1.012,0.712 -1.505,0.712l-0.27,-0.018c-0.541,-0.072 -0.955,-0.288 -1.244,-0.649c-0.24,-0.348 -0.36,-0.756 -0.36,-1.225l0.018,-0.541l0.126,-0.468c0.132,-0.529 0.438,-0.961 0.919,-1.298c0.481,-0.336 0.973,-0.504 1.478,-0.504l0.306,0.018c0.997,0.18 1.496,0.775 1.496,1.784Zm6.434,-1.658c-0,3.928 -1.058,7.058 -3.172,9.389c-1.934,2.139 -4.343,3.208 -7.227,3.208c-2.355,-0 -4.253,-0.67 -5.695,-2.01c-1.441,-1.339 -2.162,-3.295 -2.162,-5.866c-0,-1.742 0.547,-3.652 1.64,-5.73c1.177,-2.223 2.613,-3.809 4.307,-4.758l0.541,-0.234c0.204,-0.072 0.426,-0.108 0.666,-0.108c0.397,-0 0.739,0.144 1.028,0.432c0.252,0.312 0.378,0.667 0.378,1.063c0,0.625 -0.264,1.112 -0.793,1.46c-1.165,0.793 -2.223,2 -3.172,3.622c-0.348,0.697 -0.618,1.412 -0.811,2.145l-0.216,1.081l-0.072,1.063c0,1.154 0.436,2.142 1.307,2.965c0.871,0.823 2.003,1.234 3.397,1.234c1.874,0 3.424,-0.738 4.649,-2.216c1.334,-1.646 2.001,-3.977 2.001,-6.992l-0.018,-0.739l-0.073,-1.406c0,-0.469 0.145,-0.829 0.433,-1.081c0.288,-0.253 0.679,-0.379 1.171,-0.379c0.409,0 0.799,0.12 1.172,0.361c0.252,0.168 0.444,0.51 0.576,1.027l0.109,1.243l0.036,1.226Z" style="fill:#192274;fill-rule:nonzero;"/><path d="M337.547,67.754c0,0.312 -0.06,0.649 -0.18,1.009l-1.117,3.262l-1.334,4.199c-0.432,1.622 -0.649,2.697 -0.649,3.226c0,0.721 0.061,1.201 0.181,1.442c0.168,0.324 0.51,0.486 1.027,0.486l0.973,0l0,3.442l-1.027,0c-1.19,0 -2.193,-0.36 -3.01,-1.081c-0.853,-0.853 -1.279,-2.108 -1.279,-3.766c-0,-0.926 0.198,-2.235 0.594,-3.929c0.145,-0.757 0.331,-1.49 0.559,-2.199c0.06,-0.252 0.153,-0.582 0.279,-0.991c0.127,-0.408 0.286,-0.901 0.478,-1.478l0.613,-1.856l0.703,-1.982c0.168,-0.421 0.417,-0.748 0.747,-0.982c0.331,-0.235 0.67,-0.352 1.019,-0.352c0.396,0 0.733,0.132 1.009,0.397c0.276,0.24 0.414,0.624 0.414,1.153Z" style="fill:#192274;fill-rule:nonzero;"/><path d="M359.894,55.481c0,0.361 -0.066,0.649 -0.198,0.865c-0.072,0.181 -0.271,0.511 -0.595,0.992l-0.739,0.865l-0.937,1.009l-2.289,2.18c-0.745,0.661 -1.604,1.376 -2.577,2.145c-0.709,0.553 -1.634,1.213 -2.775,1.982c-1.85,1.226 -3.484,2.013 -4.902,2.361l-0.144,0.018l-0.108,0c-0.385,0 -0.733,-0.156 -1.045,-0.468c-0.289,-0.325 -0.433,-0.679 -0.433,-1.064c0,-0.312 0.123,-0.63 0.37,-0.955c0.246,-0.324 0.687,-0.601 1.324,-0.829c1.526,-0.54 3.142,-1.375 4.848,-2.505c1.394,-0.961 2.775,-2.09 4.145,-3.388c0.444,-0.42 0.943,-0.937 1.496,-1.55l1.622,-1.82c0.216,-0.324 0.486,-0.577 0.81,-0.757c0.325,-0.18 0.637,-0.27 0.938,-0.27c0.288,-0 0.558,0.105 0.811,0.315c0.252,0.211 0.378,0.502 0.378,0.874Zm-6.307,1.73l-0.055,0.379l-0.198,0.45c-0.18,0.301 -0.444,0.655 -0.793,1.064l-0.468,0.504l-0.595,0.541l-0.541,0.486l-1.135,0.938c-1.153,0.913 -2.187,1.658 -3.1,2.234l-0.847,0.397l-0.378,0.09l-0.397,0.036c-0.276,-0 -0.51,-0.06 -0.702,-0.18c-0.085,-0.084 -0.163,-0.247 -0.235,-0.487c0,-0.384 0.301,-0.781 0.901,-1.189l1.929,-1.37c0.769,-0.529 1.441,-1.024 2.018,-1.487c0.577,-0.462 1.117,-0.946 1.622,-1.45c0.372,-0.373 0.829,-0.745 1.37,-1.118l0.558,-0.27l0.505,-0.09c0.36,-0 0.541,0.174 0.541,0.522Zm-7.083,27.609l-0.685,0c-0.36,0 -0.733,-0.054 -1.117,-0.162c-0.385,-0.108 -0.781,-0.282 -1.19,-0.522c-0.756,-0.469 -1.303,-1.07 -1.639,-1.803c-0.589,0.625 -1.526,1.25 -2.812,1.875l-1.297,0.45c-0.397,0.108 -0.727,0.162 -0.992,0.162l-0.829,0l0,-3.442l0.829,0c0.445,0 0.902,-0.111 1.37,-0.333c0.469,-0.222 0.973,-0.61 1.514,-1.163c0.949,-0.925 1.556,-2.036 1.82,-3.334l0.288,-1.928l0.181,-1.424l0.18,-1.117c0.096,-0.997 0.21,-1.802 0.342,-2.415c0.036,-0.36 0.25,-0.655 0.64,-0.883c0.39,-0.228 0.76,-0.342 1.108,-0.342c0.421,-0 0.79,0.12 1.109,0.36c0.318,0.241 0.477,0.601 0.477,1.082l-0.036,0.396l-0.378,2.415l-0.541,3.622c-0.18,1.358 -0.27,2.403 -0.27,3.136c-0,0.42 0.096,0.823 0.288,1.207c0.24,0.481 0.583,0.721 1.027,0.721l0.613,0l0,3.442Z" style="fill:#192274;fill-rule:nonzero;"/><path d="M354.235,75.341c0,2.018 -0.832,4.103 -2.496,6.253c-1.664,2.151 -3.421,3.226 -5.271,3.226l-0.487,0l0,-3.442l0.487,0c1.177,0 2.211,-0.697 3.1,-2.09c0.661,-1.106 1.153,-2.499 1.477,-4.181c0.073,-0.457 0.256,-0.799 0.55,-1.027c0.294,-0.229 0.604,-0.343 0.928,-0.343c0.445,0 0.841,0.156 1.19,0.469c0.348,0.288 0.522,0.666 0.522,1.135Zm0.667,13.066l-0.036,0.324c0,0.156 -0.012,0.258 -0.036,0.306c-0.072,0.373 -0.306,0.775 -0.703,1.208l-0.595,0.396c-0.204,0.108 -0.414,0.162 -0.63,0.162l-0.199,-0.018c-0.384,-0.072 -0.72,-0.258 -1.009,-0.558c-0.204,-0.241 -0.306,-0.571 -0.306,-0.991l0.036,-0.397l0.072,-0.414c0.108,-0.397 0.354,-0.751 0.739,-1.064c0.408,-0.276 0.823,-0.414 1.243,-0.414l0.235,0.018c0.793,0.132 1.189,0.613 1.189,1.442Zm-3.839,-0l-0.036,0.324c0,0.156 -0.012,0.258 -0.036,0.306c-0.072,0.457 -0.306,0.853 -0.702,1.19l-0.595,0.396c-0.204,0.108 -0.415,0.162 -0.631,0.162l-0.216,-0.018c-0.445,-0.072 -0.769,-0.246 -0.973,-0.522c-0.217,-0.253 -0.325,-0.583 -0.325,-0.991l0.018,-0.397l0.108,-0.432c0.109,-0.433 0.355,-0.787 0.739,-1.064c0.385,-0.276 0.793,-0.414 1.226,-0.414l0.252,0.018c0.781,0.132 1.171,0.613 1.171,1.442Z" style="fill:#192274;fill-rule:nonzero;"/><path d="M361.318,68.565c-0,5.731 -0.709,10.645 -2.127,14.742c-0.144,0.432 -0.411,0.789 -0.802,1.072c-0.39,0.282 -0.79,0.423 -1.198,0.423c-0.373,0 -0.679,-0.117 -0.919,-0.351c-0.241,-0.234 -0.361,-0.598 -0.361,-1.09c0,-0.397 0.09,-0.847 0.271,-1.352c0.576,-1.586 1.063,-3.749 1.459,-6.488c0.397,-2.739 0.595,-5.304 0.595,-7.695c0,-0.505 0.135,-0.904 0.406,-1.198c0.27,-0.295 0.597,-0.442 0.982,-0.442c0.408,0 0.793,0.219 1.153,0.658c0.361,0.438 0.541,1.012 0.541,1.721Z" style="fill:#192274;fill-rule:nonzero;"/><path d="M373.879,80.207l-0,0.198c-0,0.096 -0.012,0.156 -0.036,0.18l-0.108,0.361c-0.697,2.018 -1.574,3.748 -2.632,5.19c-0.877,1.406 -2.174,2.967 -3.892,4.685c-0.253,0.217 -0.52,0.397 -0.802,0.541c-0.283,0.144 -0.568,0.216 -0.856,0.216c-0.433,0 -0.811,-0.162 -1.136,-0.486c-0.3,-0.337 -0.45,-0.703 -0.45,-1.1c-0,-0.3 0.042,-0.54 0.126,-0.72c0.096,-0.145 0.282,-0.367 0.559,-0.667c1.333,-1.19 2.49,-2.487 3.469,-3.893c0.979,-1.405 1.823,-2.985 2.532,-4.739c0.108,-0.349 0.342,-0.667 0.703,-0.956c0.324,-0.216 0.654,-0.324 0.991,-0.324c0.348,0 0.691,0.141 1.027,0.424c0.337,0.282 0.505,0.645 0.505,1.09Z" style="fill:#192274;fill-rule:nonzero;"/><path d="M402.911,72.512l-0.036,0.342c0,0.156 -0.012,0.252 -0.036,0.288c-0.072,0.361 -0.306,0.769 -0.703,1.226c-0.384,0.36 -0.787,0.541 -1.207,0.541l-0.216,-0.019c-0.397,-0.072 -0.733,-0.252 -1.01,-0.54c-0.204,-0.276 -0.306,-0.613 -0.306,-1.009c0,-0.193 0.012,-0.313 0.036,-0.361l0.09,-0.45c0.108,-0.421 0.355,-0.772 0.739,-1.055c0.385,-0.282 0.793,-0.423 1.226,-0.423l0.252,0.018c0.781,0.132 1.171,0.613 1.171,1.442Zm-3.82,-0l-0.036,0.342c-0,0.156 -0.012,0.252 -0.036,0.288c-0.072,0.361 -0.307,0.769 -0.703,1.226c-0.409,0.348 -0.823,0.522 -1.244,0.522l-0.198,-0.018c-0.396,-0.072 -0.721,-0.234 -0.973,-0.486c-0.216,-0.252 -0.324,-0.595 -0.324,-1.027l0.018,-0.361l0.09,-0.468c0.108,-0.421 0.357,-0.772 0.748,-1.055c0.39,-0.282 0.802,-0.423 1.234,-0.423l0.234,0.018c0.793,0.132 1.19,0.613 1.19,1.442Zm14.561,4.811c0,2.68 -1.153,4.956 -3.46,6.831c-1.742,1.333 -4.043,2.378 -6.902,3.135l-1.911,0.451c-1.321,0.288 -2.48,0.432 -3.478,0.432c-1.898,0.181 -3.646,0.271 -5.244,0.271c-1.442,-0 -2.616,-0.057 -3.523,-0.172c-0.907,-0.114 -1.709,-0.321 -2.406,-0.621c-1.141,-0.433 -1.964,-1.16 -2.469,-2.181c-0.168,-0.384 -0.294,-0.841 -0.378,-1.37l-0.09,-0.865l-0.037,-1.045c0,-1.117 0.571,-2.445 1.713,-3.983c0.925,-1.225 1.772,-2.126 2.541,-2.703c0.588,-0.42 1.171,-0.631 1.748,-0.631c0.432,0 0.769,0.115 1.009,0.343c0.264,0.204 0.396,0.504 0.396,0.901c0,0.276 -0.075,0.562 -0.225,0.856c-0.15,0.294 -0.393,0.592 -0.73,0.892l-1.676,1.766c-0.769,0.925 -1.225,1.724 -1.369,2.397l-0.018,0.234l-0,0.108c-0,0.938 0.606,1.628 1.82,2.073c1.021,0.348 2.475,0.522 4.361,0.522l1.243,-0.036l1.028,-0.036l0.72,0l0.307,-0.036l0.757,-0.054l0.685,-0.09c0.937,0 1.874,-0.054 2.811,-0.162c0.24,-0.024 0.459,-0.048 0.658,-0.072c0.198,-0.024 0.429,-0.066 0.694,-0.126l1.261,-0.325c1.37,-0.36 2.661,-0.889 3.875,-1.586c1.874,-1.045 2.919,-2.444 3.135,-4.199l0.036,-0.378l0,-0.667l-0.054,-1.099c0,-0.288 -0.06,-0.631 -0.18,-1.027l-0.577,-2.541c0,-0.277 0.085,-0.535 0.253,-0.775c0.18,-0.18 0.474,-0.349 0.883,-0.505l0.306,-0.036c0.577,0 1.166,0.721 1.766,2.163c0.072,0.204 0.141,0.414 0.208,0.63c0.066,0.217 0.138,0.49 0.216,0.82c0.078,0.331 0.165,0.814 0.261,1.451l0.036,0.523l0,0.522Z" style="fill:#192274;fill-rule:nonzero;"/><path d="M424.663,80.207l0,0.198c0,0.096 -0.012,0.156 -0.036,0.18l-0.108,0.361c-0.697,2.018 -1.574,3.748 -2.631,5.19c-0.877,1.406 -2.175,2.967 -3.893,4.685c-0.252,0.217 -0.519,0.397 -0.802,0.541c-0.282,0.144 -0.567,0.216 -0.856,0.216c-0.432,0 -0.811,-0.162 -1.135,-0.486c-0.3,-0.337 -0.451,-0.703 -0.451,-1.1c0,-0.3 0.042,-0.54 0.127,-0.72c0.096,-0.145 0.282,-0.367 0.558,-0.667c1.334,-1.19 2.49,-2.487 3.469,-3.893c0.98,-1.405 1.824,-2.985 2.532,-4.739c0.109,-0.349 0.343,-0.667 0.703,-0.956c0.325,-0.216 0.655,-0.324 0.991,-0.324c0.349,0 0.691,0.141 1.028,0.424c0.336,0.282 0.504,0.645 0.504,1.09Z" style="fill:#192274;fill-rule:nonzero;"/><path d="M437.17,84.82l-2.216,0c-0.661,1.082 -1.616,2.247 -2.866,3.496c-1.021,1.034 -2.168,1.983 -3.442,2.848l-0.288,0.144l-0.289,0.108l-0.468,0.09c-0.349,0 -0.733,-0.18 -1.154,-0.54c-0.3,-0.337 -0.45,-0.733 -0.45,-1.19c-0,-0.276 0.066,-0.537 0.198,-0.784c0.132,-0.246 0.342,-0.465 0.631,-0.657l0.468,-0.289l0.775,-0.558l1.136,-0.884c0.624,-0.504 1.321,-1.177 2.09,-2.018c-0.925,-0.252 -1.724,-0.739 -2.397,-1.46c-0.697,-0.805 -1.045,-1.838 -1.045,-3.099c0,-1.034 0.616,-2.07 1.847,-3.109c1.232,-1.039 2.478,-1.559 3.74,-1.559c0.48,0 0.889,0.084 1.225,0.252c0.649,0.265 1.22,0.769 1.712,1.514c0.18,0.325 0.325,0.682 0.433,1.072c0.108,0.391 0.162,0.802 0.162,1.235l-0.054,0.883l-0.09,0.541l-0.162,0.522l0.504,0l0,3.442Zm-3.388,-5.01l-0.018,-0.414c0,-0.072 -0.042,-0.168 -0.126,-0.288c-0.072,-0.145 -0.21,-0.283 -0.415,-0.415l-0.324,-0.072c-0.372,-0 -0.751,0.174 -1.135,0.523c-0.385,0.324 -0.577,0.69 -0.577,1.099c0,0.36 0.165,0.646 0.496,0.856c0.33,0.21 0.711,0.315 1.144,0.315l0.36,-0.036c0.121,-0.12 0.25,-0.354 0.388,-0.703c0.138,-0.348 0.207,-0.636 0.207,-0.865Z" style="fill:#192274;fill-rule:nonzero;"/><path d="M456.525,84.82l-1.532,0c-0.768,0 -1.456,-0.153 -2.063,-0.459c-0.607,-0.307 -1.078,-0.748 -1.415,-1.325l-0.649,0.379l-0.738,0.396l-1.496,0.595c-0.216,0.48 -0.493,0.907 -0.829,1.279c-0.192,0.157 -0.361,0.268 -0.505,0.334c-0.144,0.066 -0.318,0.099 -0.522,0.099c-0.205,-0 -0.469,-0.108 -0.793,-0.325c-0.12,-0.132 -0.271,-0.444 -0.451,-0.937c-0.456,-0.036 -0.838,-0.099 -1.144,-0.189c-0.307,-0.09 -0.664,-0.237 -1.073,-0.441c-0.684,-0.361 -1.231,-0.781 -1.639,-1.262c-0.457,0.505 -1.058,0.955 -1.803,1.352l-1.027,0.378l-0.486,0.09l-0.397,0.036l-1.171,0l-0,-3.442l0.901,0c0.829,0 1.628,-0.456 2.397,-1.369c0.552,-0.697 1.033,-1.742 1.441,-3.136c0.072,-0.409 0.265,-0.715 0.577,-0.919c0.276,-0.217 0.595,-0.325 0.955,-0.325c0.325,0 0.697,0.127 1.118,0.379c0.324,0.252 0.486,0.577 0.486,0.973l-0.036,0.288l-0.162,0.721l-0.27,1.352l-0.055,0.468c0,0.385 0.163,0.757 0.487,1.118c0.324,0.288 0.757,0.432 1.298,0.432c0.096,-0.589 0.21,-1.099 0.342,-1.532c0.132,-0.504 0.318,-1.027 0.559,-1.568c0.156,-0.48 0.39,-1.063 0.703,-1.748l0.378,-0.793l0.469,-0.81c0.612,-1.01 1.291,-1.851 2.036,-2.524c0.829,-0.72 1.574,-1.081 2.235,-1.081c0.829,0 1.574,0.394 2.234,1.181c0.661,0.787 0.991,1.811 0.991,3.072c0,0.457 -0.051,0.934 -0.153,1.433c-0.102,0.499 -0.273,1.018 -0.513,1.559l-0.433,0.919l-0.522,0.847c-0.037,0.288 0.075,0.538 0.333,0.748c0.258,0.21 0.592,0.315 1,0.315l0.937,0l0,3.442Zm-3.694,-9.587c-0,-0.324 -0.108,-0.487 -0.325,-0.487c-0.18,0 -0.426,0.15 -0.738,0.451c-0.253,0.288 -0.523,0.667 -0.811,1.135l-0.523,1.027l-0.469,1.1c-0.252,0.649 -0.468,1.333 -0.648,2.054c0.648,-0.324 1.231,-0.796 1.748,-1.415c0.516,-0.618 0.919,-1.246 1.207,-1.883l0.397,-1.135c0.108,-0.324 0.162,-0.607 0.162,-0.847Z" style="fill:#192274;fill-rule:nonzero;"/><path d="M464.202,75.341c0,2.018 -0.832,4.103 -2.496,6.253c-1.664,2.151 -3.421,3.226 -5.271,3.226l-0.486,0l-0,-3.442l0.486,0c1.178,0 2.211,-0.697 3.1,-2.09c0.661,-1.106 1.153,-2.499 1.478,-4.181c0.072,-0.457 0.255,-0.799 0.549,-1.027c0.295,-0.229 0.604,-0.343 0.928,-0.343c0.445,0 0.841,0.156 1.19,0.469c0.348,0.288 0.522,0.666 0.522,1.135Zm-2.126,16.003l-0,0.198c-0,0.108 -0.012,0.181 -0.036,0.217l-0.054,0.36c-0.072,0.493 -0.355,0.97 -0.847,1.433c-0.493,0.462 -1.003,0.694 -1.532,0.694l-0.288,-0.018c-0.469,-0.073 -0.877,-0.289 -1.226,-0.649c-0.24,-0.349 -0.36,-0.763 -0.36,-1.244l-0,-0.396l0.018,-0.325l0.126,-0.27c0.108,-0.517 0.408,-0.949 0.901,-1.297l0.703,-0.379c0.132,-0.036 0.261,-0.066 0.387,-0.09c0.126,-0.024 0.262,-0.036 0.406,-0.036l0.306,0.018c0.997,0.18 1.496,0.775 1.496,1.784Z" style="fill:#192274;fill-rule:nonzero;"/><path d="M368.743,116.82l-0.703,0c-0.577,0 -1.202,-0.183 -1.874,-0.549c-0.673,-0.367 -1.184,-0.772 -1.532,-1.217c-0.541,0.961 -1.196,1.868 -1.965,2.721c-0.372,0.409 -0.832,0.856 -1.378,1.343c-0.547,0.487 -1.085,0.88 -1.613,1.18l-0.451,0.217l-0.45,0.072c-0.469,-0 -0.883,-0.198 -1.244,-0.595c-0.336,-0.408 -0.504,-0.841 -0.504,-1.297c-0,-0.469 0.222,-0.853 0.666,-1.154c0.445,-0.228 0.841,-0.486 1.19,-0.775l0.577,-0.45l0.63,-0.559c0.733,-0.697 1.382,-1.478 1.947,-2.343c0.396,-0.649 0.811,-1.586 1.243,-2.811c0.264,-0.913 0.517,-1.952 0.757,-3.118c0.072,-0.432 0.243,-0.76 0.514,-0.982c0.27,-0.222 0.585,-0.333 0.946,-0.333c0.432,-0 0.841,0.156 1.225,0.468c0.385,0.289 0.577,0.637 0.577,1.045l-0.036,0.271l-0.18,0.721l-0.163,0.865l-0.108,0.865l-0.036,0.775c0,0.696 0.096,1.237 0.289,1.622c0.216,0.384 0.564,0.576 1.045,0.576l0.631,0l-0,3.442Z" style="fill:#192274;fill-rule:nonzero;"/><path d="M377.249,116.82l-0.703,0c-0.817,0 -1.556,-0.204 -2.217,-0.612c-0.528,-0.337 -0.961,-0.781 -1.297,-1.334c-0.505,0.541 -1.25,1.027 -2.235,1.46c-0.853,0.324 -1.55,0.486 -2.09,0.486l-0.469,0l-0,-3.442l0.541,0c0.901,0 1.763,-0.429 2.586,-1.288c0.823,-0.859 1.396,-1.908 1.721,-3.145c0.072,-0.36 0.264,-0.64 0.576,-0.838c0.313,-0.198 0.649,-0.297 1.01,-0.297c0.372,-0 0.715,0.102 1.027,0.306c0.276,0.204 0.414,0.493 0.414,0.865l-0.036,0.288l-0.414,1.694l-0.108,0.613l-0.036,0.487c-0,0.42 0.084,0.739 0.252,0.955c0.144,0.24 0.42,0.36 0.829,0.36l0.649,0l-0,3.442Zm-0.793,3.587l-0.036,0.324c-0,0.156 -0.012,0.258 -0.036,0.306c-0.072,0.373 -0.307,0.775 -0.703,1.208l-0.595,0.396c-0.204,0.108 -0.414,0.162 -0.631,0.162l-0.198,-0.018c-0.384,-0.072 -0.721,-0.258 -1.009,-0.558c-0.204,-0.241 -0.306,-0.571 -0.306,-0.991l0.036,-0.397l0.072,-0.414c0.108,-0.397 0.354,-0.751 0.739,-1.064c0.408,-0.276 0.823,-0.414 1.243,-0.414l0.234,0.018c0.793,0.132 1.19,0.613 1.19,1.442Zm-3.839,-0l-0.036,0.324c0,0.156 -0.012,0.258 -0.036,0.306c-0.072,0.457 -0.306,0.853 -0.703,1.19l-0.594,0.396c-0.205,0.108 -0.415,0.162 -0.631,0.162l-0.216,-0.018c-0.445,-0.072 -0.769,-0.246 -0.974,-0.522c-0.216,-0.253 -0.324,-0.583 -0.324,-0.991l0.018,-0.397l0.108,-0.432c0.108,-0.433 0.355,-0.787 0.739,-1.064c0.384,-0.276 0.793,-0.414 1.226,-0.414l0.252,0.018c0.781,0.132 1.171,0.613 1.171,1.442Z" style="fill:#192274;fill-rule:nonzero;"/><path d="M385.124,102.655l0,0.199c0,0.108 -0.012,0.18 -0.036,0.216l-0.054,0.36c-0.072,0.469 -0.363,0.94 -0.874,1.415c-0.511,0.475 -1.012,0.712 -1.505,0.712l-0.288,-0.018c-0.517,-0.072 -0.919,-0.27 -1.208,-0.595c-0.252,-0.324 -0.378,-0.751 -0.378,-1.279c-0,-0.349 0.042,-0.685 0.126,-1.01c0.144,-0.528 0.454,-0.961 0.928,-1.297c0.475,-0.337 0.97,-0.505 1.487,-0.505l0.306,0.018c0.998,0.181 1.496,0.775 1.496,1.784Zm0.667,14.165l-0.703,0c-0.817,0 -1.556,-0.204 -2.217,-0.612c-0.528,-0.337 -0.961,-0.781 -1.297,-1.334c-0.505,0.541 -1.25,1.027 -2.235,1.46c-0.853,0.324 -1.55,0.486 -2.09,0.486l-0.469,0l0,-3.442l0.541,0c0.901,0 1.763,-0.429 2.586,-1.288c0.823,-0.859 1.397,-1.908 1.721,-3.145c0.072,-0.36 0.264,-0.64 0.577,-0.838c0.312,-0.198 0.648,-0.297 1.009,-0.297c0.372,-0 0.715,0.102 1.027,0.306c0.276,0.204 0.415,0.493 0.415,0.865l-0.036,0.288l-0.415,1.694l-0.108,0.613l-0.036,0.487c-0,0.42 0.084,0.739 0.252,0.955c0.144,0.24 0.421,0.36 0.829,0.36l0.649,0l-0,3.442Z" style="fill:#192274;fill-rule:nonzero;"/><path d="M408.426,87.644l-0.054,0.504c-0.036,0.216 -0.102,0.379 -0.198,0.487c-0.072,0.18 -0.181,0.36 -0.325,0.54c-0.108,0.181 -0.258,0.349 -0.45,0.505c-0.829,0.865 -1.772,1.736 -2.83,2.613c-0.721,0.589 -1.838,1.442 -3.352,2.559c-2.15,1.502 -4.661,3.07 -7.533,4.704c-0.3,0.12 -0.546,0.18 -0.739,0.18c-0.444,-0 -0.859,-0.132 -1.243,-0.397c-0.372,-0.3 -0.559,-0.636 -0.559,-1.009c0,-0.264 0.081,-0.501 0.244,-0.712c0.162,-0.21 0.513,-0.495 1.054,-0.856c0.949,-0.492 2.036,-1.141 3.262,-1.946c1.045,-0.685 2.297,-1.556 3.757,-2.613c1.46,-1.057 2.664,-1.988 3.614,-2.793c0.516,-0.445 0.967,-0.847 1.351,-1.208c0.433,-0.408 0.811,-0.793 1.135,-1.153c0.181,-0.216 0.421,-0.403 0.721,-0.559l0.343,-0.144l0.486,-0.09c0.361,-0 0.67,0.132 0.928,0.396c0.259,0.265 0.388,0.595 0.388,0.992Zm-14.652,14.633l-0.018,1.099l-0.072,1.766l-0.018,0.703l0,0.469l-0.072,0.342l0,0.505l-0.072,0.36l-0.18,1.136c-0.349,2.595 -1.132,4.604 -2.352,6.028c-1.219,1.423 -2.658,2.135 -4.316,2.135l-1.352,0l0,-3.442l1.19,0c0.901,0 1.622,-0.399 2.162,-1.198c0.541,-0.799 0.992,-2.184 1.352,-4.154l0.144,-1.46l0.054,-1.207l0.126,-3.064c0,-0.577 0.169,-1.039 0.505,-1.388c0.372,-0.336 0.787,-0.504 1.243,-0.504c0.433,-0 0.82,0.165 1.163,0.495c0.342,0.331 0.513,0.79 0.513,1.379Z" style="fill:#192274;fill-rule:nonzero;"/><path d="M426.736,123.308l-0.054,0.469c-0.024,0.132 -0.09,0.288 -0.199,0.468c-0.108,0.18 -0.354,0.409 -0.738,0.685l-1.712,0.883l-1.911,0.937c-1.742,0.673 -3.544,1.009 -5.406,1.009c-2.451,0 -4.349,-0.678 -5.695,-2.036c-1.262,-1.25 -1.892,-2.908 -1.892,-4.974c-0,-1.646 0.492,-3.328 1.477,-5.046c0.361,-0.661 0.805,-1.307 1.334,-1.937c0.529,-0.631 1.105,-1.241 1.73,-1.83c-0.54,-0.18 -1.015,-0.528 -1.424,-1.045c-0.372,-0.564 -0.558,-1.153 -0.558,-1.766c-0,-0.589 0.225,-1.222 0.676,-1.901c0.45,-0.679 1.132,-1.415 2.045,-2.208c1.826,-1.61 3.424,-2.415 4.794,-2.415c0.408,0 0.715,0.066 0.919,0.199c0.18,0.072 0.39,0.27 0.631,0.594c0.072,0.144 0.108,0.307 0.108,0.487c-0,0.661 -0.307,1.451 -0.919,2.37c-0.613,0.919 -1.124,1.348 -1.532,1.288c-0.204,-0.072 -0.307,-0.216 -0.307,-0.432l0.073,-0.361l0.144,-0.612l-0.054,-0.199c-0.145,-0.204 -0.703,0.105 -1.676,0.928c-0.974,0.823 -1.46,1.523 -1.46,2.1c-0,0.144 0.084,0.252 0.252,0.324l0.289,0.072l0.432,0.018c0.312,0 0.67,-0.036 1.072,-0.108c0.403,-0.072 0.742,-0.18 1.019,-0.324l0.396,-0.216l0.631,-0.361l1.099,-0.685c0.769,-0.492 1.286,-0.738 1.55,-0.738c0.48,-0 0.877,0.138 1.189,0.414c0.289,0.312 0.433,0.685 0.433,1.117l-0.018,0.325c-0,0.084 -0.039,0.231 -0.117,0.441c-0.078,0.211 -1.085,0.862 -3.019,1.956c-1.057,0.552 -2.054,1.159 -2.991,1.82c-0.938,0.661 -1.646,1.255 -2.127,1.784c-1.79,1.766 -2.685,3.742 -2.685,5.929c-0,1.045 0.372,1.886 1.117,2.523c0.385,0.312 0.859,0.547 1.424,0.703c0.564,0.156 1.099,0.234 1.604,0.234c1.526,0 2.949,-0.222 4.271,-0.667c0.697,-0.192 1.255,-0.42 1.676,-0.685l0.378,-0.18l0.415,-0.234l0.432,-0.252l0.451,-0.289c0.156,-0.096 0.312,-0.168 0.468,-0.216l0.487,-0.072c0.336,0 0.685,0.162 1.045,0.487c0.289,0.324 0.433,0.732 0.433,1.225Z" style="fill:#192274;fill-rule:nonzero;"/><path d="M435.422,111.396c0,0.577 -0.108,1.246 -0.324,2.009c-0.217,0.763 -0.535,1.493 -0.955,2.19l-0.595,1.045l-0.343,0.487l-0.396,0.522c-0.397,0.553 -0.973,1.244 -1.73,2.073c-1.165,1.249 -2.493,2.397 -3.983,3.442l-0.288,0.144l-0.289,0.108l-0.468,0.09c-0.349,0 -0.733,-0.18 -1.153,-0.54c-0.301,-0.337 -0.451,-0.733 -0.451,-1.19c-0,-0.276 0.066,-0.537 0.198,-0.784c0.132,-0.246 0.343,-0.465 0.631,-0.657c0.685,-0.409 1.472,-1.01 2.361,-1.803c0.625,-0.54 1.339,-1.267 2.144,-2.18c-1.081,-0.253 -1.931,-0.784 -2.55,-1.595c-0.618,-0.811 -0.928,-1.727 -0.928,-2.748c0.108,-1.154 0.76,-2.22 1.956,-3.199c1.195,-0.979 2.393,-1.469 3.595,-1.469c0.372,0 0.793,0.09 1.261,0.27c0.685,0.325 1.256,0.823 1.712,1.496c0.193,0.337 0.34,0.688 0.442,1.054c0.102,0.367 0.153,0.778 0.153,1.235Zm-3.244,0.288c0,-0.408 -0.168,-0.727 -0.504,-0.955l-0.325,-0.072c-0.372,-0 -0.751,0.174 -1.135,0.523c-0.385,0.348 -0.577,0.72 -0.577,1.117c0,0.324 0.192,0.589 0.577,0.793c0.384,0.18 0.853,0.27 1.406,0.27c0.144,-0.18 0.27,-0.432 0.378,-0.757l0.126,-0.45l0.054,-0.469Z" style="fill:#192274;fill-rule:nonzero;"/><path d="M448.163,116.82l-1.153,0l-0.487,-0.09c-0.18,-0.024 -0.396,-0.096 -0.648,-0.216c-0.373,-0.12 -0.799,-0.372 -1.28,-0.757c-0.553,1.129 -1.352,2.439 -2.397,3.929c-0.288,0.444 -0.709,1.015 -1.261,1.712l-1.19,1.46c-0.156,0.192 -0.345,0.339 -0.567,0.441c-0.223,0.102 -0.442,0.153 -0.658,0.153c-0.469,0 -0.895,-0.165 -1.28,-0.495c-0.384,-0.331 -0.576,-0.718 -0.576,-1.163c-0,-0.348 0.15,-0.679 0.45,-0.991c1.262,-1.334 2.529,-3.046 3.803,-5.136c0.528,-0.877 1.039,-1.838 1.531,-2.883c0.169,-0.349 0.337,-0.739 0.505,-1.172c0.168,-0.432 0.354,-0.949 0.559,-1.55c0.096,-0.444 0.306,-0.79 0.63,-1.036c0.325,-0.246 0.673,-0.369 1.046,-0.369c0.336,-0 0.679,0.141 1.027,0.423c0.348,0.282 0.523,0.64 0.523,1.072l-0,0.199c-0,0.084 -0.012,0.15 -0.036,0.198c-0.145,0.673 -0.217,1.213 -0.217,1.622c0,0.324 0.072,0.625 0.217,0.901c0.144,0.204 0.42,0.306 0.829,0.306l0.63,0l0,3.442Z" style="fill:#192274;fill-rule:nonzero;"/><path d="M459.805,99.105l-0.036,0.325c0,0.156 -0.012,0.258 -0.036,0.306c-0.072,0.384 -0.306,0.787 -0.703,1.207c-0.156,0.157 -0.354,0.295 -0.594,0.415c-0.109,0.048 -0.205,0.084 -0.289,0.108c-0.084,0.024 -0.192,0.036 -0.324,0.036l-0.216,-0.018c-0.469,-0.072 -0.799,-0.258 -0.992,-0.559c-0.216,-0.252 -0.324,-0.582 -0.324,-0.991c-0,-0.228 0.012,-0.354 0.036,-0.378l0.09,-0.433c0.108,-0.432 0.355,-0.787 0.739,-1.063c0.384,-0.276 0.793,-0.415 1.225,-0.415l0.253,0.018c0.781,0.133 1.171,0.613 1.171,1.442Zm1.37,3.839l-0.036,0.324c-0,0.156 -0.012,0.258 -0.036,0.307c-0.072,0.396 -0.307,0.792 -0.703,1.189c-0.156,0.156 -0.355,0.294 -0.595,0.414c-0.108,0.048 -0.204,0.085 -0.288,0.109c-0.084,0.024 -0.192,0.036 -0.325,0.036l-0.216,-0.018c-0.396,-0.072 -0.733,-0.253 -1.009,-0.541c-0.204,-0.276 -0.306,-0.613 -0.306,-1.009l0.036,-0.361c-0,-0.228 0.03,-0.372 0.09,-0.432c0.108,-0.373 0.342,-0.721 0.703,-1.045c0.36,-0.289 0.781,-0.433 1.261,-0.433l0.252,0.018c0.781,0.108 1.172,0.589 1.172,1.442Zm-3.821,-0l-0.036,0.324c0,0.156 -0.012,0.258 -0.036,0.307c-0.072,0.348 -0.306,0.75 -0.703,1.207c-0.408,0.348 -0.823,0.523 -1.243,0.523l-0.198,-0.018c-0.433,-0.073 -0.757,-0.244 -0.974,-0.514c-0.216,-0.27 -0.324,-0.604 -0.324,-1l0.018,-0.361c0,-0.18 0.03,-0.33 0.09,-0.45c0.108,-0.397 0.355,-0.751 0.739,-1.063c0.385,-0.277 0.799,-0.415 1.244,-0.415l0.234,0.018c0.793,0.108 1.189,0.589 1.189,1.442Zm6.794,5.55c-0.18,1.875 -0.829,3.713 -1.946,5.515c-1.177,1.874 -2.361,2.811 -3.55,2.811l-0.631,-0.054l-0.342,-0.09l-0.307,-0.18l-0.612,-0.433c-0.193,-0.168 -0.355,-0.354 -0.487,-0.558c-0.264,0.264 -0.703,0.582 -1.316,0.955c-0.516,0.24 -0.967,0.36 -1.351,0.36c-0.517,0 -0.949,-0.12 -1.298,-0.36l-0.558,-0.379l-0.523,-0.558c-0.853,0.865 -1.742,1.297 -2.667,1.297l-0.919,0l-0,-3.442l0.468,0c0.481,0 1.027,-0.438 1.64,-1.315c0.613,-0.877 1.111,-1.929 1.496,-3.154c0.096,-0.361 0.294,-0.649 0.595,-0.865l0.504,-0.216l0.541,-0.072c0.336,-0 0.676,0.105 1.018,0.315c0.343,0.21 0.514,0.495 0.514,0.856c-0,0.12 -0.024,0.246 -0.072,0.378l-0.541,1.442c-0.396,0.997 -0.595,1.688 -0.595,2.073c0,0.372 0.156,0.558 0.469,0.558c0.42,0 0.919,-0.582 1.496,-1.748c0.348,-0.865 0.6,-1.766 0.757,-2.703c0.036,-0.324 0.198,-0.625 0.486,-0.901c0.288,-0.216 0.637,-0.325 1.045,-0.325c0.433,0 0.823,0.115 1.172,0.343c0.324,0.252 0.486,0.571 0.486,0.955l-0.036,0.288l-0.504,1.857l-0.271,0.991l-0.072,0.612c0,0.421 0.162,0.631 0.487,0.631c0.432,0 0.949,-0.649 1.55,-1.946l0.27,-0.739l0.252,-0.811l0.343,-1.658c0.036,-0.36 0.186,-0.637 0.45,-0.829c0.265,-0.192 0.535,-0.288 0.811,-0.288c0.265,-0 0.481,0.03 0.649,0.09c0.168,0.06 0.366,0.174 0.595,0.342c0.336,0.265 0.504,0.583 0.504,0.955Z" style="fill:#192274;fill-rule:nonzero;"/><path d="M184.13,136.512l-0.036,0.342c0,0.156 -0.012,0.252 -0.036,0.288c-0.072,0.361 -0.306,0.769 -0.702,1.226c-0.385,0.36 -0.787,0.541 -1.208,0.541l-0.216,-0.019c-0.397,-0.072 -0.733,-0.252 -1.009,-0.54c-0.205,-0.276 -0.307,-0.613 -0.307,-1.009c0,-0.193 0.012,-0.313 0.036,-0.361l0.09,-0.45c0.109,-0.421 0.355,-0.772 0.739,-1.055c0.385,-0.282 0.793,-0.423 1.226,-0.423l0.252,0.018c0.781,0.132 1.171,0.613 1.171,1.442Zm-3.82,-0l-0.036,0.342c-0,0.156 -0.012,0.252 -0.036,0.288c-0.072,0.361 -0.307,0.769 -0.703,1.226c-0.409,0.348 -0.823,0.522 -1.244,0.522l-0.198,-0.018c-0.396,-0.072 -0.721,-0.234 -0.973,-0.486c-0.216,-0.252 -0.324,-0.595 -0.324,-1.027l0.018,-0.361l0.09,-0.468c0.108,-0.421 0.357,-0.772 0.748,-1.055c0.39,-0.282 0.802,-0.423 1.234,-0.423l0.234,0.018c0.793,0.132 1.19,0.613 1.19,1.442Zm15.57,12.308l-1.225,0c-1.274,0 -2.355,-0.444 -3.244,-1.333c-0.721,-0.745 -1.237,-1.832 -1.55,-3.262l-2.09,2.415c-1.154,1.153 -2.517,2.078 -4.091,2.775c-1.994,0.853 -4.572,1.454 -7.731,1.802l-1.406,0.072l-0.595,0.018c-3.063,0 -5.382,-0.709 -6.956,-2.126c-1.37,-1.25 -2.054,-2.986 -2.054,-5.208c-0,-1.13 0.498,-2.493 1.495,-4.091c0.793,-1.298 1.562,-2.247 2.307,-2.848l0.505,-0.306l0.468,-0.27l0.883,-0.181c0.313,0 0.61,0.105 0.892,0.316c0.283,0.21 0.424,0.507 0.424,0.892c-0,0.516 -0.264,1.093 -0.793,1.73l-1.586,1.676c-0.793,0.997 -1.189,1.892 -1.189,2.685c-0,1.262 0.534,2.259 1.604,2.992c0.516,0.36 1.3,0.651 2.351,0.874c1.052,0.222 2.208,0.333 3.469,0.333c3.136,0 5.749,-0.535 7.84,-1.604c1.838,-0.901 3.382,-2.228 4.631,-3.983c0.986,-1.345 1.815,-2.997 2.487,-4.955c0.132,-0.385 0.361,-0.673 0.685,-0.866c0.325,-0.216 0.679,-0.324 1.063,-0.324c0.433,0 0.787,0.12 1.064,0.361c0.288,0.216 0.432,0.546 0.432,0.991l0,0.198c0,0.12 -0.012,0.192 -0.036,0.216l-0.108,0.397l-0.396,1.207l-0.307,1.045l-0.288,1.37c-0.072,0.432 -0.108,0.799 -0.108,1.099c-0,0.745 0.15,1.328 0.45,1.748c0.108,0.157 0.319,0.331 0.631,0.523l0.433,0.126l0.522,0.054l1.117,0l0,3.442Z" style="fill:#192274;fill-rule:nonzero;"/><path d="M212.785,148.82l-1.046,0l-0.684,-0.054c-0.193,-0.036 -0.439,-0.138 -0.739,-0.306c-0.385,-0.192 -0.757,-0.505 -1.118,-0.937c-0.36,0.36 -0.805,0.673 -1.333,0.937l-0.703,0.27l-0.306,0.072l-0.325,0.018l-0.685,-0.054c-0.192,-0.036 -0.402,-0.138 -0.63,-0.306c-0.325,-0.168 -0.679,-0.481 -1.064,-0.937c-0.36,0.36 -0.805,0.673 -1.333,0.937l-0.703,0.27l-0.306,0.072l-0.325,0.018c-0.456,0 -0.889,-0.114 -1.297,-0.342l-0.559,-0.379l-0.523,-0.558c-0.312,0.312 -0.751,0.625 -1.315,0.937c-0.577,0.228 -1.027,0.342 -1.352,0.342l-0.919,0l0,-3.442l0.487,0c0.612,0 1.231,-0.462 1.856,-1.387c0.492,-0.733 0.919,-1.773 1.279,-3.118c0.096,-0.385 0.283,-0.673 0.559,-0.865c0.324,-0.18 0.667,-0.271 1.027,-0.271c0.349,0 0.694,0.112 1.036,0.334c0.343,0.222 0.514,0.507 0.514,0.856c0,0.144 -0.024,0.282 -0.072,0.414l-0.523,1.406c-0.396,0.997 -0.594,1.688 -0.594,2.073c-0,0.372 0.156,0.558 0.468,0.558c0.421,0 0.919,-0.582 1.496,-1.748c0.348,-0.865 0.601,-1.766 0.757,-2.703c0.036,-0.324 0.198,-0.625 0.487,-0.901c0.288,-0.216 0.636,-0.325 1.045,-0.325c0.432,0 0.823,0.115 1.171,0.343c0.325,0.252 0.487,0.571 0.487,0.955l-0.036,0.288l-0.505,1.857l-0.27,0.991l-0.072,0.612c-0,0.421 0.162,0.631 0.486,0.631c0.421,0 0.919,-0.582 1.496,-1.748l0.415,-1.297l0.306,-1.334c0.072,-0.384 0.258,-0.721 0.559,-1.009c0.36,-0.192 0.702,-0.289 1.027,-0.289c0.432,0 0.817,0.115 1.153,0.343c0.325,0.252 0.487,0.571 0.487,0.955l-0.036,0.288l-0.397,1.532c-0.168,0.769 -0.252,1.268 -0.252,1.496l0.018,0.396c0.024,0.157 0.09,0.307 0.198,0.451c0.108,0.144 0.313,0.216 0.613,0.216l0.595,0l-0,3.442Z" style="fill:#192274;fill-rule:nonzero;"/><path d="M221.255,148.82l-0.703,0c-0.817,0 -1.556,-0.204 -2.217,-0.612c-0.528,-0.337 -0.961,-0.781 -1.297,-1.334c-0.505,0.541 -1.25,1.027 -2.235,1.46c-0.853,0.324 -1.55,0.486 -2.09,0.486l-0.469,0l-0,-3.442l0.541,0c0.901,0 1.763,-0.429 2.586,-1.288c0.823,-0.859 1.396,-1.908 1.721,-3.145c0.072,-0.36 0.264,-0.64 0.576,-0.838c0.313,-0.198 0.649,-0.297 1.01,-0.297c0.372,-0 0.715,0.102 1.027,0.306c0.276,0.204 0.414,0.493 0.414,0.865l-0.036,0.288l-0.414,1.694l-0.108,0.613l-0.036,0.487c-0,0.42 0.084,0.739 0.252,0.955c0.144,0.24 0.42,0.36 0.829,0.36l0.649,0l-0,3.442Zm-0.793,3.587l-0.036,0.324c-0,0.156 -0.012,0.258 -0.036,0.306c-0.072,0.373 -0.307,0.775 -0.703,1.208l-0.595,0.396c-0.204,0.108 -0.414,0.162 -0.631,0.162l-0.198,-0.018c-0.384,-0.072 -0.721,-0.258 -1.009,-0.558c-0.204,-0.241 -0.306,-0.571 -0.306,-0.991l0.036,-0.397l0.072,-0.414c0.108,-0.397 0.354,-0.751 0.739,-1.064c0.408,-0.276 0.823,-0.414 1.243,-0.414l0.234,0.018c0.793,0.132 1.19,0.613 1.19,1.442Zm-3.839,-0l-0.036,0.324c0,0.156 -0.012,0.258 -0.036,0.306c-0.072,0.457 -0.306,0.853 -0.703,1.19l-0.594,0.396c-0.205,0.108 -0.415,0.162 -0.631,0.162l-0.216,-0.018c-0.445,-0.072 -0.769,-0.246 -0.974,-0.522c-0.216,-0.253 -0.324,-0.583 -0.324,-0.991l0.018,-0.397l0.108,-0.432c0.108,-0.433 0.355,-0.787 0.739,-1.064c0.385,-0.276 0.793,-0.414 1.226,-0.414l0.252,0.018c0.781,0.132 1.171,0.613 1.171,1.442Z" style="fill:#192274;fill-rule:nonzero;"/><path d="M229.653,132.457l-0,0.198c-0,0.108 -0.012,0.18 -0.036,0.216l-0.054,0.361c-0.072,0.54 -0.349,1.03 -0.829,1.468c-0.481,0.439 -0.998,0.658 -1.55,0.658l-0.271,-0.018c-0.54,-0.072 -0.955,-0.288 -1.243,-0.649c-0.24,-0.348 -0.36,-0.756 -0.36,-1.225l0.018,-0.541l0.126,-0.468c0.108,-0.505 0.405,-0.928 0.892,-1.271c0.486,-0.342 0.988,-0.513 1.505,-0.513l0.306,0.018c0.997,0.168 1.496,0.757 1.496,1.766Zm-0.613,6.884c0,2.018 -0.832,4.103 -2.496,6.253c-1.664,2.151 -3.421,3.226 -5.271,3.226l-0.487,0l0,-3.442l0.487,0c1.177,0 2.21,-0.697 3.099,-2.09c0.661,-1.106 1.154,-2.499 1.478,-4.181c0.072,-0.457 0.256,-0.799 0.55,-1.027c0.294,-0.229 0.604,-0.343 0.928,-0.343c0.444,0 0.841,0.156 1.189,0.469c0.349,0.288 0.523,0.666 0.523,1.135Z" style="fill:#192274;fill-rule:nonzero;"/><path d="M258.595,136.512l-0.036,0.342c0,0.156 -0.012,0.252 -0.036,0.288c-0.072,0.361 -0.306,0.769 -0.703,1.226c-0.384,0.36 -0.787,0.541 -1.207,0.541l-0.216,-0.019c-0.397,-0.072 -0.733,-0.252 -1.01,-0.54c-0.204,-0.276 -0.306,-0.613 -0.306,-1.009c0,-0.193 0.012,-0.313 0.036,-0.361l0.09,-0.45c0.108,-0.421 0.355,-0.772 0.739,-1.055c0.385,-0.282 0.793,-0.423 1.226,-0.423l0.252,0.018c0.781,0.132 1.171,0.613 1.171,1.442Zm-3.82,-0l-0.036,0.342c-0,0.156 -0.012,0.252 -0.036,0.288c-0.072,0.361 -0.307,0.769 -0.703,1.226c-0.409,0.348 -0.823,0.522 -1.244,0.522l-0.198,-0.018c-0.396,-0.072 -0.721,-0.234 -0.973,-0.486c-0.216,-0.252 -0.325,-0.595 -0.325,-1.027l0.019,-0.361l0.09,-0.468c0.108,-0.421 0.357,-0.772 0.748,-1.055c0.39,-0.282 0.801,-0.423 1.234,-0.423l0.234,0.018c0.793,0.132 1.19,0.613 1.19,1.442Zm15.57,12.308l-1.225,0c-1.274,0 -2.355,-0.444 -3.244,-1.333c-0.721,-0.745 -1.238,-1.832 -1.55,-3.262l-2.09,2.415c-1.154,1.153 -2.517,2.078 -4.091,2.775c-1.995,0.853 -4.572,1.454 -7.732,1.802l-1.405,0.072l-0.595,0.018c-3.064,0 -5.382,-0.709 -6.956,-2.126c-1.37,-1.25 -2.055,-2.986 -2.055,-5.208c0,-1.13 0.499,-2.493 1.496,-4.091c0.793,-1.298 1.562,-2.247 2.307,-2.848l0.504,-0.306l0.469,-0.27l0.883,-0.181c0.312,0 0.61,0.105 0.892,0.316c0.283,0.21 0.424,0.507 0.424,0.892c-0,0.516 -0.265,1.093 -0.793,1.73l-1.586,1.676c-0.793,0.997 -1.19,1.892 -1.19,2.685c0,1.262 0.535,2.259 1.604,2.992c0.517,0.36 1.301,0.651 2.352,0.874c1.051,0.222 2.208,0.333 3.469,0.333c3.136,0 5.749,-0.535 7.84,-1.604c1.838,-0.901 3.382,-2.228 4.631,-3.983c0.985,-1.345 1.814,-2.997 2.487,-4.955c0.132,-0.385 0.361,-0.673 0.685,-0.866c0.324,-0.216 0.679,-0.324 1.063,-0.324c0.433,0 0.787,0.12 1.063,0.361c0.289,0.216 0.433,0.546 0.433,0.991l-0,0.198c-0,0.12 -0.012,0.192 -0.036,0.216l-0.108,0.397l-0.397,1.207l-0.306,1.045l-0.288,1.37c-0.072,0.432 -0.109,0.799 -0.109,1.099c0,0.745 0.151,1.328 0.451,1.748c0.108,0.157 0.318,0.331 0.631,0.523l0.432,0.126l0.523,0.054l1.117,0l0,3.442Z" style="fill:#192274;fill-rule:nonzero;"/><path d="M278.635,131.015l0,0.198c0,0.108 -0.012,0.181 -0.036,0.217l-0.054,0.36c-0.072,0.541 -0.348,1.03 -0.829,1.469c-0.481,0.438 -0.991,0.658 -1.532,0.658l-0.288,-0.018c-0.493,-0.073 -0.901,-0.289 -1.226,-0.649c-0.252,-0.349 -0.378,-0.757 -0.378,-1.226l0.018,-0.54l0.126,-0.469c0.144,-0.48 0.454,-0.898 0.928,-1.252c0.475,-0.355 0.97,-0.532 1.487,-0.532l0.288,0.018c0.998,0.168 1.496,0.757 1.496,1.766Zm5.118,12.921c0,0.757 -0.631,1.514 -1.892,2.271l-1.009,0.487l-0.829,0.378c-0.697,0.313 -1.778,0.679 -3.244,1.1l-1.226,0.27l-1.207,0.234l-1.081,0.108l-1.064,0.036l-2.216,0l-0,-3.442l2.379,0c1.273,0 2.403,-0.123 3.388,-0.369c0.985,-0.247 1.892,-0.592 2.721,-1.036l-0.739,-5.479l-0.487,0.793l-0.576,1.063l-1.55,2.866l-0.36,0.468c-0.109,0.132 -0.241,0.24 -0.397,0.325l-0.414,0.198c-0.133,0.036 -0.289,0.054 -0.469,0.054c-0.348,-0 -0.667,-0.126 -0.955,-0.379c-0.24,-0.264 -0.361,-0.6 -0.361,-1.009l0.109,-0.667l0.288,-0.847l0.198,-0.486l0.361,-0.757c0.576,-1.214 1.177,-2.289 1.802,-3.226c0.793,-1.117 1.544,-1.754 2.252,-1.91l0.343,-0.054l0.342,-0.018c1.009,-0 1.796,0.498 2.361,1.496c0.397,0.756 0.703,1.814 0.919,3.171l0,0.703l0.072,0.487l0.126,0.955c0.072,0.589 0.175,0.949 0.307,1.081c0.336,-0.132 0.642,-0.198 0.919,-0.198c0.24,-0 0.456,0.06 0.649,0.18c0.168,0.072 0.312,0.27 0.432,0.595c0.072,0.18 0.108,0.366 0.108,0.558Z" style="fill:#192274;fill-rule:nonzero;"/><path d="M290.241,132.565c-0,5.731 -0.709,10.645 -2.127,14.742c-0.144,0.432 -0.411,0.789 -0.802,1.072c-0.39,0.282 -0.789,0.423 -1.198,0.423c-0.372,0 -0.679,-0.117 -0.919,-0.351c-0.24,-0.234 -0.36,-0.598 -0.36,-1.09c-0,-0.397 0.09,-0.847 0.27,-1.352c0.577,-1.586 1.063,-3.749 1.46,-6.488c0.396,-2.739 0.594,-5.304 0.594,-7.695c0,-0.505 0.135,-0.904 0.406,-1.198c0.27,-0.295 0.597,-0.442 0.982,-0.442c0.408,0 0.793,0.219 1.153,0.658c0.361,0.438 0.541,1.012 0.541,1.721Z" style="fill:#192274;fill-rule:nonzero;"/><path d="M303.793,145.45c0,1.094 -0.793,2.649 -2.379,4.668c-0.588,0.745 -1.333,1.55 -2.234,2.415c-0.505,0.504 -1.334,1.201 -2.487,2.09l-0.487,0.253l-0.486,0.072c-0.457,-0 -0.872,-0.193 -1.244,-0.577c-0.144,-0.18 -0.27,-0.379 -0.378,-0.595c-0.06,-0.228 -0.103,-0.45 -0.127,-0.667c0,-0.156 0.054,-0.378 0.163,-0.666c0.06,-0.121 0.222,-0.289 0.486,-0.505l1.009,-0.739l1.01,-0.811l0.955,-0.865c0.312,-0.252 0.637,-0.577 0.973,-0.973c1.309,-1.346 1.964,-2.307 1.964,-2.883c0,-0.265 -0.631,-0.974 -1.892,-2.127l-1.352,-1.135c-0.384,-0.325 -0.576,-0.709 -0.576,-1.154c-0,-0.48 0.192,-0.913 0.576,-1.297c0.409,-0.373 0.847,-0.559 1.316,-0.559c0.36,0 0.679,0.12 0.955,0.361l0.685,0.612l0.703,0.685l0.612,0.649l0.667,0.775c1.046,1.261 1.568,2.252 1.568,2.973Z" style="fill:#192274;fill-rule:nonzero;"/><path d="M316.498,148.82l-1.153,0l-0.487,-0.09c-0.18,-0.024 -0.396,-0.096 -0.648,-0.216c-0.373,-0.12 -0.799,-0.372 -1.28,-0.757c-0.553,1.129 -1.352,2.439 -2.397,3.929c-0.288,0.444 -0.709,1.015 -1.261,1.712l-1.19,1.46c-0.156,0.192 -0.345,0.339 -0.567,0.441c-0.223,0.102 -0.442,0.153 -0.658,0.153c-0.469,0 -0.895,-0.165 -1.28,-0.495c-0.384,-0.331 -0.576,-0.718 -0.576,-1.163c-0,-0.348 0.15,-0.679 0.45,-0.991c1.262,-1.334 2.529,-3.046 3.803,-5.136c0.528,-0.877 1.039,-1.838 1.531,-2.883c0.169,-0.349 0.337,-0.739 0.505,-1.172c0.168,-0.432 0.354,-0.949 0.559,-1.55c0.096,-0.444 0.306,-0.79 0.63,-1.036c0.325,-0.246 0.673,-0.369 1.046,-0.369c0.336,-0 0.679,0.141 1.027,0.423c0.348,0.282 0.523,0.64 0.523,1.072l-0,0.199c-0,0.084 -0.012,0.15 -0.036,0.198c-0.145,0.673 -0.217,1.213 -0.217,1.622c0,0.324 0.072,0.625 0.217,0.901c0.144,0.204 0.42,0.306 0.829,0.306l0.63,0l0,3.442Z" style="fill:#192274;fill-rule:nonzero;"/><path d="M324.23,139.341c-0,2.018 -0.832,4.103 -2.496,6.253c-1.664,2.151 -3.422,3.226 -5.272,3.226l-0.486,0l-0,-3.442l0.486,0c1.178,0 2.211,-0.697 3.1,-2.09c0.661,-1.106 1.153,-2.499 1.478,-4.181c0.072,-0.457 0.255,-0.799 0.549,-1.027c0.295,-0.229 0.604,-0.343 0.928,-0.343c0.445,0 0.841,0.156 1.19,0.469c0.348,0.288 0.523,0.666 0.523,1.135Zm0.468,15.535l0,0.198c0,0.096 -0.012,0.156 -0.036,0.18c0,0.192 -0.03,0.342 -0.09,0.451c-0.108,0.384 -0.361,0.726 -0.757,1.027c-0.396,0.3 -0.799,0.45 -1.207,0.45l-0.253,-0.018c-0.781,-0.132 -1.171,-0.612 -1.171,-1.441l0.018,-0.325l0.054,-0.306c0.072,-0.433 0.294,-0.835 0.667,-1.208c0.18,-0.18 0.372,-0.312 0.576,-0.396l0.325,-0.09l0.36,-0.036l0.217,0.018c0.432,0.072 0.756,0.252 0.973,0.54c0.216,0.253 0.324,0.571 0.324,0.956Zm-3.839,0.018l0,0.198c0,0.096 -0.012,0.156 -0.036,0.18l-0.072,0.433c-0.108,0.348 -0.36,0.702 -0.757,1.063l-0.252,0.144l-0.378,0.162c-0.181,0.072 -0.379,0.108 -0.595,0.108l-0.234,-0.018c-0.793,-0.132 -1.19,-0.612 -1.19,-1.441l0.018,-0.325l0.054,-0.306c0.072,-0.445 0.304,-0.847 0.694,-1.208c0.391,-0.36 0.802,-0.54 1.235,-0.54l0.198,0.018c0.384,0.072 0.721,0.252 1.009,0.54c0.204,0.241 0.306,0.571 0.306,0.992Zm1.37,3.838l0,0.198c0,0.096 -0.012,0.157 -0.036,0.181c0,0.156 -0.024,0.3 -0.072,0.432c-0.108,0.373 -0.36,0.721 -0.757,1.045c-0.396,0.289 -0.805,0.433 -1.225,0.433l-0.235,-0.018c-0.793,-0.132 -1.189,-0.613 -1.189,-1.442l0.018,-0.342l0.054,-0.289c0.072,-0.432 0.3,-0.841 0.685,-1.225l0.432,-0.324c0.253,-0.145 0.523,-0.217 0.811,-0.217l0.199,0.018c0.456,0.072 0.786,0.247 0.991,0.523c0.216,0.252 0.324,0.595 0.324,1.027Z" style="fill:#192274;fill-rule:nonzero;"/><path d="M344.81,148.82l-0.721,0c-0.805,0 -1.529,-0.213 -2.171,-0.639c-0.643,-0.427 -1.169,-1.007 -1.577,-1.74c-0.457,0.181 -0.985,0.271 -1.586,0.271c-1.081,-0 -2.001,-0.307 -2.757,-0.919c-0.325,-0.289 -0.595,-0.631 -0.811,-1.028l-0.217,-0.63l-0.072,-0.649c0,-0.649 0.156,-1.226 0.469,-1.73c0.324,-0.661 0.889,-1.358 1.694,-2.091c0.625,-0.552 1.333,-1.057 2.126,-1.513l2.055,-1.046c0.108,-0.072 0.24,-0.24 0.396,-0.504l0.235,-0.541c0.24,-0.42 0.636,-0.631 1.189,-0.631c0.396,0 0.757,0.127 1.081,0.379c0.325,0.252 0.487,0.589 0.487,1.009c-0,0.18 -0.054,0.415 -0.162,0.703l-0.811,1.946l-0.541,1.64l-0.324,1.406c-0.072,0.384 -0.108,0.727 -0.108,1.027c-0,0.577 0.114,1.033 0.342,1.37c0.24,0.312 0.619,0.468 1.135,0.468l0.649,0l0,3.442Zm-4.704,-7.803l-0.378,0.234c-0.12,0.06 -0.228,0.138 -0.324,0.235l-0.325,0.234l-0.216,0.234c-0.288,0.252 -0.541,0.559 -0.757,0.919l-0.072,0.271c-0,0.144 0.072,0.288 0.216,0.432l0.505,0.18c0.132,0 0.309,-0.036 0.531,-0.108c0.223,-0.072 0.4,-0.162 0.532,-0.27l0,-0.343l0.072,-0.666l0.216,-1.352Z" style="fill:#192274;fill-rule:nonzero;"/><path d="M352.559,139.341c0,2.018 -0.832,4.103 -2.496,6.253c-1.664,2.151 -3.421,3.226 -5.271,3.226l-0.487,0l0,-3.442l0.487,0c1.177,0 2.211,-0.697 3.1,-2.09c0.661,-1.106 1.153,-2.499 1.477,-4.181c0.073,-0.457 0.256,-0.799 0.55,-1.027c0.294,-0.229 0.604,-0.343 0.928,-0.343c0.445,0 0.841,0.156 1.19,0.469c0.348,0.288 0.522,0.666 0.522,1.135Zm-2.126,16.003l-0,0.198c-0,0.108 -0.012,0.181 -0.036,0.217l-0.054,0.36c-0.072,0.493 -0.355,0.97 -0.847,1.433c-0.493,0.462 -1.004,0.694 -1.532,0.694l-0.289,-0.018c-0.468,-0.073 -0.877,-0.289 -1.225,-0.649c-0.24,-0.349 -0.36,-0.763 -0.36,-1.244l-0,-0.396l0.018,-0.325l0.126,-0.27c0.108,-0.517 0.408,-0.949 0.901,-1.297l0.703,-0.379c0.132,-0.036 0.261,-0.066 0.387,-0.09c0.126,-0.024 0.261,-0.036 0.406,-0.036l0.306,0.018c0.997,0.18 1.496,0.775 1.496,1.784Z" style="fill:#192274;fill-rule:nonzero;"/><path d="M382.835,137.503l-0.018,0.252c0,0.589 -0.498,1.46 -1.495,2.613c-0.998,1.154 -1.724,1.73 -2.181,1.73l-0.162,-0.018c-0.156,-0.084 -0.234,-0.306 -0.234,-0.667l0.054,-0.522c0.036,-0.18 0.096,-0.355 0.18,-0.523c-0.337,0.06 -0.661,0.174 -0.973,0.343l-0.523,0.27l-0.613,0.414c-0.757,0.577 -1.189,1.082 -1.297,1.514c-0.036,0.325 0.324,0.631 1.081,0.919c1.141,0.373 1.904,0.661 2.289,0.865c0.841,0.481 1.261,1.196 1.261,2.145l0,0.414l-0.072,0.307c-0.252,1.658 -1.333,3.208 -3.244,4.649c-2.018,1.55 -4.241,2.325 -6.668,2.325c-0.504,0 -1.111,-0.054 -1.82,-0.162c-1.874,-0.288 -3.346,-1.057 -4.415,-2.307c-0.481,-0.564 -0.859,-1.228 -1.135,-1.991c-0.277,-0.763 -0.415,-1.547 -0.415,-2.352c0,-1.298 0.297,-2.646 0.892,-4.046c0.595,-1.399 1.475,-2.784 2.64,-4.154c0.301,-0.312 0.577,-0.546 0.829,-0.703l0.415,-0.162l0.45,-0.072c0.433,0 0.781,0.156 1.046,0.469c0.288,0.288 0.432,0.66 0.432,1.117l0,0.198c0,0.096 -0.012,0.156 -0.036,0.18l-0.108,0.307c-0.048,0.156 -0.174,0.378 -0.379,0.667c-0.456,0.552 -0.859,1.087 -1.207,1.604l-0.451,0.756l-0.396,0.757c-0.469,0.973 -0.703,1.851 -0.703,2.631c0,0.938 0.282,1.688 0.847,2.253c0.565,0.565 1.454,0.991 2.667,1.28c0.457,0.072 0.913,0.108 1.37,0.108c1.49,-0 2.805,-0.325 3.947,-0.973c1.141,-0.649 1.808,-1.424 2,-2.325l0.018,-0.108l0,-0.09c0,-0.397 -0.432,-0.787 -1.297,-1.172l-2.451,-0.829c-0.877,-0.396 -1.316,-0.931 -1.316,-1.604l0.036,-0.36c0.18,-1.009 0.865,-2.109 2.055,-3.298c0.288,-0.276 0.829,-0.715 1.621,-1.316l2.019,-1.333l0.865,-0.469l0.865,-0.414l0.559,-0.235l0.919,-0.342l0.306,-0.072l0.288,-0.018c0.469,-0 0.862,0.147 1.181,0.442c0.318,0.294 0.477,0.663 0.477,1.108Z" style="fill:#192274;fill-rule:nonzero;"/><path d="M394.73,135.647l-0,0.198c-0,0.108 -0.012,0.18 -0.036,0.216l-0.055,0.343c-0.072,0.504 -0.363,0.985 -0.874,1.441c-0.51,0.457 -1.006,0.685 -1.486,0.685l-0.289,0c-0.54,-0.072 -0.949,-0.282 -1.225,-0.631c-0.252,-0.348 -0.379,-0.769 -0.379,-1.261l0,-0.379l0.018,-0.27l0.127,-0.342c0.144,-0.445 0.45,-0.856 0.919,-1.235c0.468,-0.378 0.967,-0.568 1.495,-0.568l0.289,0.018c0.997,0.181 1.496,0.775 1.496,1.785Zm-0.883,8.56l-0,0.198c-0,0.096 -0.013,0.156 -0.037,0.18l-0.108,0.361c-0.696,2.018 -1.574,3.748 -2.631,5.19c-0.877,1.406 -2.174,2.967 -3.892,4.685c-0.253,0.217 -0.52,0.397 -0.802,0.541c-0.283,0.144 -0.568,0.216 -0.856,0.216c-0.433,0 -0.811,-0.162 -1.136,-0.486c-0.3,-0.337 -0.45,-0.703 -0.45,-1.1c-0,-0.3 0.042,-0.54 0.126,-0.72c0.096,-0.145 0.282,-0.367 0.559,-0.667c1.333,-1.19 2.489,-2.487 3.469,-3.893c0.979,-1.405 1.823,-2.985 2.532,-4.739c0.108,-0.349 0.342,-0.667 0.703,-0.956c0.324,-0.216 0.654,-0.324 0.991,-0.324c0.348,0 0.691,0.141 1.027,0.424c0.336,0.282 0.505,0.645 0.505,1.09Z" style="fill:#192274;fill-rule:nonzero;"/><path d="M403.128,131.754c-0,0.312 -0.06,0.649 -0.181,1.009l-1.117,3.262l-1.334,4.199c-0.432,1.622 -0.648,2.697 -0.648,3.226c-0,0.721 0.06,1.201 0.18,1.442c0.168,0.324 0.51,0.486 1.027,0.486l0.973,0l0,3.442l-1.027,0c-1.189,0 -2.193,-0.36 -3.01,-1.081c-0.853,-0.853 -1.279,-2.108 -1.279,-3.766c-0,-0.926 0.198,-2.235 0.595,-3.929c0.144,-0.757 0.33,-1.49 0.558,-2.199c0.06,-0.252 0.153,-0.582 0.28,-0.991c0.126,-0.408 0.285,-0.901 0.477,-1.478l0.613,-1.856l0.703,-1.982c0.168,-0.421 0.417,-0.748 0.748,-0.982c0.33,-0.235 0.669,-0.352 1.018,-0.352c0.396,0 0.733,0.132 1.009,0.397c0.276,0.24 0.415,0.624 0.415,1.153Z" style="fill:#192274;fill-rule:nonzero;"/><path d="M410.534,148.82l-0.702,0c-0.817,0 -1.556,-0.204 -2.217,-0.612c-0.529,-0.337 -0.961,-0.781 -1.298,-1.334c-0.504,0.541 -1.249,1.027 -2.234,1.46c-0.853,0.324 -1.55,0.486 -2.091,0.486l-0.468,0l-0,-3.442l0.54,0c0.901,0 1.763,-0.429 2.586,-1.288c0.823,-0.859 1.397,-1.908 1.721,-3.145c0.073,-0.36 0.265,-0.64 0.577,-0.838c0.313,-0.198 0.649,-0.297 1.009,-0.297c0.373,-0 0.715,0.102 1.028,0.306c0.276,0.204 0.414,0.493 0.414,0.865l-0.036,0.288l-0.414,1.694l-0.109,0.613l-0.036,0.487c0,0.42 0.084,0.739 0.253,0.955c0.144,0.24 0.42,0.36 0.829,0.36l0.648,0l0,3.442Zm-0.793,3.587l-0.036,0.324c0,0.156 -0.012,0.258 -0.036,0.306c-0.072,0.373 -0.306,0.775 -0.702,1.208l-0.595,0.396c-0.204,0.108 -0.415,0.162 -0.631,0.162l-0.198,-0.018c-0.385,-0.072 -0.721,-0.258 -1.009,-0.558c-0.205,-0.241 -0.307,-0.571 -0.307,-0.991l0.036,-0.397l0.072,-0.414c0.109,-0.397 0.355,-0.751 0.739,-1.064c0.409,-0.276 0.823,-0.414 1.244,-0.414l0.234,0.018c0.793,0.132 1.189,0.613 1.189,1.442Zm-3.838,-0l-0.036,0.324c-0,0.156 -0.012,0.258 -0.036,0.306c-0.072,0.457 -0.307,0.853 -0.703,1.19l-0.595,0.396c-0.204,0.108 -0.414,0.162 -0.63,0.162l-0.217,-0.018c-0.444,-0.072 -0.769,-0.246 -0.973,-0.522c-0.216,-0.253 -0.324,-0.583 -0.324,-0.991l0.018,-0.397l0.108,-0.432c0.108,-0.433 0.354,-0.787 0.739,-1.064c0.384,-0.276 0.793,-0.414 1.225,-0.414l0.252,0.018c0.781,0.132 1.172,0.613 1.172,1.442Z" style="fill:#192274;fill-rule:nonzero;"/><path d="M418.932,132.457l0,0.198c0,0.108 -0.012,0.18 -0.036,0.216l-0.054,0.361c-0.072,0.54 -0.348,1.03 -0.829,1.468c-0.48,0.439 -0.997,0.658 -1.55,0.658l-0.27,-0.018c-0.54,-0.072 -0.955,-0.288 -1.243,-0.649c-0.241,-0.348 -0.361,-0.756 -0.361,-1.225l0.018,-0.541l0.126,-0.468c0.109,-0.505 0.406,-0.928 0.892,-1.271c0.487,-0.342 0.989,-0.513 1.505,-0.513l0.307,0.018c0.997,0.168 1.495,0.757 1.495,1.766Zm-0.612,6.884c-0,2.018 -0.832,4.103 -2.496,6.253c-1.664,2.151 -3.421,3.226 -5.272,3.226l-0.486,0l-0,-3.442l0.486,0c1.178,0 2.211,-0.697 3.1,-2.09c0.661,-1.106 1.154,-2.499 1.478,-4.181c0.072,-0.457 0.255,-0.799 0.55,-1.027c0.294,-0.229 0.603,-0.343 0.928,-0.343c0.444,0 0.841,0.156 1.189,0.469c0.348,0.288 0.523,0.666 0.523,1.135Z" style="fill:#192274;fill-rule:nonzero;"/><path d="M442.793,148.82l-0.847,0c-0.349,0 -0.676,-0.036 -0.982,-0.108c-0.307,-0.072 -0.622,-0.228 -0.946,-0.468c-0.565,-0.385 -1.034,-0.877 -1.406,-1.478c-0.577,0.577 -1.298,1.081 -2.163,1.514c-0.853,0.36 -1.688,0.54 -2.505,0.54c-1.045,0 -2,-0.162 -2.865,-0.486c-0.541,-0.217 -1.009,-0.487 -1.406,-0.811l-0.396,-0.415l-0.325,-0.486l-0.144,-0.397l-0.054,-0.27l-0.036,-0.27c0,-0.421 0.141,-0.793 0.424,-1.118c0.282,-0.324 0.639,-0.486 1.072,-0.486c0.204,-0 0.486,0.09 0.847,0.27l0.883,0.595c0.565,0.288 1.261,0.432 2.09,0.432c1.082,0 1.974,-0.456 2.677,-1.369c0.702,-0.914 1.054,-2.031 1.054,-3.352l0.036,-2.65l0.036,-2.342l0.036,-1.226l0.036,-1.117l0,-0.433c0,-0.204 0.012,-0.33 0.036,-0.378l0.162,-0.865c0.072,-0.433 0.283,-0.76 0.631,-0.982c0.348,-0.223 0.721,-0.334 1.117,-0.334c0.421,0 0.79,0.12 1.109,0.361c0.318,0.24 0.477,0.6 0.477,1.081l-0.018,0.27l-0.288,2.397l-0.018,0.793l-0.072,1.262l-0.018,0.991l-0.018,1.189l-0.126,3.55l-0,0.703c-0,0.985 0.105,1.64 0.315,1.965c0.21,0.324 0.538,0.486 0.982,0.486l0.613,0l-0,3.442Zm-6.938,-6.668c-0,0.637 -0.175,1.148 -0.523,1.532c-0.348,0.385 -0.757,0.577 -1.225,0.577c-0.397,-0 -0.751,-0.174 -1.064,-0.523c-0.3,-0.372 -0.45,-0.883 -0.45,-1.532c-0,-1.297 -0.181,-2.877 -0.541,-4.739c-0.18,-1.082 -0.384,-1.929 -0.613,-2.541c-0.096,-0.397 -0.201,-0.781 -0.315,-1.154c-0.114,-0.372 -0.249,-0.751 -0.406,-1.135l-0.108,-0.451l-0.018,-0.288c0,-0.48 0.138,-0.859 0.415,-1.135l0.486,-0.325c0.133,-0.072 0.313,-0.108 0.541,-0.108c0.36,0 0.697,0.132 1.009,0.397c0.253,0.18 0.511,0.618 0.775,1.315c0.228,0.637 0.469,1.382 0.721,2.235l0.685,2.883c0.42,2.079 0.631,3.743 0.631,4.992Z" style="fill:#192274;fill-rule:nonzero;"/><path d="M452.993,148.82l-1.135,0c-0.469,0 -0.934,-0.036 -1.397,-0.108c-0.463,-0.072 -0.838,-0.192 -1.126,-0.36c-0.649,-0.325 -1.172,-0.793 -1.568,-1.406c-0.553,0.433 -1.412,0.877 -2.577,1.334l-1.352,0.396l-0.577,0.108l-0.45,0.036l-0.631,0l0,-3.442l0.919,0c0.673,0 1.55,-0.27 2.631,-0.811c1.082,-0.54 1.622,-0.961 1.622,-1.261c0,-0.18 -0.102,-0.295 -0.306,-0.343l-0.487,-0.108l-0.666,-0.018l-1.154,0l-0.631,-0.018c-0.192,0 -0.336,-0.024 -0.432,-0.072c-0.373,-0.108 -0.559,-0.318 -0.559,-0.631c0,-1.213 0.979,-2.433 2.938,-3.658c1.754,-1.033 3.358,-1.55 4.811,-1.55c0.505,0 0.86,0.078 1.064,0.234c0.144,0.084 0.3,0.319 0.468,0.703c0.12,0.421 0.181,0.715 0.181,0.883c-0,0.733 -0.253,1.712 -0.757,2.938c-0.433,0.877 -0.889,1.682 -1.37,2.415l-0.054,0.18l-0.018,0.198c-0,0.3 0.138,0.535 0.414,0.703c0.289,0.144 0.667,0.216 1.136,0.216l1.063,0l0,3.442Zm-3.424,-8.524c-0.036,-0.036 -0.138,-0.06 -0.306,-0.072c-0.337,0 -0.751,0.096 -1.244,0.288c-0.48,0.169 -0.721,0.319 -0.721,0.451c0,0.096 0.144,0.144 0.433,0.144l0.324,0l0.397,-0.018c0.264,0 0.468,0.024 0.612,0.072l0.361,-0.504c0.036,-0.048 0.084,-0.169 0.144,-0.361Z" style="fill:#192274;fill-rule:nonzero;"/><path d="M462.364,129.501l0,0.217c0,0.12 -0.012,0.192 -0.036,0.216l-0.054,0.342c-0.072,0.541 -0.348,1.03 -0.829,1.469c-0.48,0.438 -0.991,0.658 -1.532,0.658l-0.288,-0.018c-0.589,-0.096 -1.003,-0.31 -1.244,-0.64c-0.24,-0.33 -0.36,-0.742 -0.36,-1.235l0.018,-0.54l0.126,-0.469c0.144,-0.456 0.451,-0.883 0.919,-1.279c0.481,-0.337 0.979,-0.505 1.496,-0.505l0.288,0.018c0.998,0.168 1.496,0.757 1.496,1.766Zm1.91,11.768c0,0.313 -0.168,0.619 -0.504,0.919c-0.264,0.265 -0.847,0.595 -1.748,0.992c-0.817,1.537 -2.211,2.919 -4.181,4.145c-1.646,0.997 -3.016,1.495 -4.109,1.495l-1.352,0l0,-3.442l1.136,0c0.432,0 1,-0.117 1.703,-0.351c0.703,-0.234 1.324,-0.55 1.865,-0.946l-0.361,0.018c-0.6,-0 -1.168,-0.253 -1.703,-0.757c-0.534,-0.505 -0.802,-1.088 -0.802,-1.748c0,-1.406 0.896,-2.89 2.686,-4.452c1.742,-1.501 3.31,-2.252 4.703,-2.252c0.325,-0 0.565,0.03 0.721,0.09c0.505,0.18 0.907,0.51 1.208,0.991c0.252,0.469 0.378,1.015 0.378,1.64l0,0.306c0,0.205 -0.012,0.331 -0.036,0.379l-0.108,0.558l-0.072,0.379l-0.072,0.306l-0.072,0.343l-0.181,0.378c0.601,0.204 0.901,0.541 0.901,1.009Zm-3.568,-2.577c0,-0.108 -0.054,-0.198 -0.162,-0.27c-0.336,-0.108 -0.955,0.174 -1.856,0.847c-0.469,0.324 -0.814,0.616 -1.036,0.874c-0.223,0.258 -0.334,0.514 -0.334,0.766c0,0.132 0.162,0.198 0.487,0.198c0.264,0 0.51,-0.024 0.739,-0.072l0.558,-0.162l0.415,-0.18c0.168,-0.133 0.432,-0.451 0.793,-0.956l0.288,-0.576c0.072,-0.18 0.108,-0.337 0.108,-0.469Z" style="fill:#192274;fill-rule:nonzero;"/></g><g><path d="M259,107.147c0,-0 -2,-0.8 -5.6,-2.1" style="fill:none;fill-rule:nonzero;stroke:#192274;stroke-width:3px;"/><path d="M241.8,101.047c-45.5,-15.7 -165.2,-53.2 -162.8,-11.9c2.2,37.2 25.1,34 37.4,29.5c4.8,-1.7 8.8,-5 11.6,-9.2c10.4,-15.5 36.6,-59 22,-83.3c-14.4,-24 -85.9,-2.9 -114,6.5" style="fill:none;fill-rule:nonzero;stroke:#192274;stroke-width:3px;stroke-dasharray:12.27,12.27;"/><path d="M30.1,34.647c-3.6,1.3 -5.6,2 -5.6,2" style="fill:none;fill-rule:nonzero;stroke:#192274;stroke-width:3px;"/><path d="M10.5,25.647l-9,18l17,10" style="fill:none;fill-rule:nonzero;stroke:#192274;stroke-width:3px;stroke-linecap:round;stroke-linejoin:round;"/></g></g></svg>