<?xml version="1.0" encoding="UTF-8" standalone="no"?>
<!-- Generator: Adobe Illustrator 25.2.0, SVG Export Plug-In . SVG Version: 6.00 Build 0)  -->

<svg
   version="1.1"
   id="Layer_1"
   x="0px"
   y="0px"
   viewBox="0 0 137.5 262.2"
   style="enable-background:new 0 0 137.5 262.2;"
   xml:space="preserve"
   sodipodi:docname="sitting-girl-r.svg"
   inkscape:version="1.1.2 (0a00cf5339, 2022-02-04, custom)"
   xmlns:inkscape="http://www.inkscape.org/namespaces/inkscape"
   xmlns:sodipodi="http://sodipodi.sourceforge.net/DTD/sodipodi-0.dtd"
   xmlns="http://www.w3.org/2000/svg"
   xmlns:svg="http://www.w3.org/2000/svg"><defs
   id="defs99" /><sodipodi:namedview
   id="namedview97"
   pagecolor="#ffffff"
   bordercolor="#666666"
   borderopacity="1.0"
   inkscape:pageshadow="2"
   inkscape:pageopacity="0.0"
   inkscape:pagecheckerboard="0"
   showgrid="false"
   inkscape:zoom="2.9633866"
   inkscape:cx="68.671432"
   inkscape:cy="131.10001"
   inkscape:window-width="1888"
   inkscape:window-height="1015"
   inkscape:window-x="32"
   inkscape:window-y="573"
   inkscape:window-maximized="1"
   inkscape:current-layer="Layer_1" />
<style
   type="text/css"
   id="style2">
	.st0{fill:#00E4FF;}
	.st1{fill:#F5CFBF;}
	.st2{opacity:0.61;fill:#CBC7FF;enable-background:new    ;}
	.st3{fill:#F29D9D;}
	.st4{fill:#7703FC;}
	.st5{opacity:0.71;fill:#E1DEFF;enable-background:new    ;}
	.st6{opacity:0.58;fill:#CBC7FF;enable-background:new    ;}
	.st7{fill:#C3B9DD;}
	.st8{fill:#1A1A1A;}
	.st9{fill:#0D1D7E;}
	.st10{fill:#292969;}
	.st11{fill:#7A56E0;}
	.st12{fill:#246AFC;}
	.st13{fill:#F8DBD0;}
	.st14{fill:#80A9FD;}
	.st15{fill:#4580FC;}
	.st16{fill:#103FCD;}
</style>
<path
   class="st0"
   d="M1341.6-257.2c-2.7,0-4.9-2.2-4.9-4.9c0-2.7,2.2-4.9,4.9-4.9c0.1,0,0.3,0,0.4,0c1-2.9,3.7-4.9,6.9-4.9  c3.2,0,5.9,2.1,6.9,4.9c0.2,0,0.4,0,0.6,0c0.8,0,1.5,0.2,2.1,0.5c1.1-2,3.1-3.3,5.5-3.3c3.5,0,6.3,2.8,6.3,6.3s-2.8,6.3-6.3,6.3  H1341.6L1341.6-257.2z"
   id="path4" />
<path
   class="st0"
   d="M1224.8-237.2c4.9,0,8.8-4,8.8-8.8c0-4.9-4-8.8-8.8-8.8c-1.1,0-2.1,0.2-3,0.5c-1.5-5.9-6.9-10.2-13.2-10.2  c-6.1,0-11.3,4-13,9.6c-1.4-0.9-3.1-1.3-4.9-1.3c-5.3,0-9.5,4.3-9.5,9.5c0,5.3,4.3,9.5,9.5,9.5H1224.8z"
   id="path6" />
<g
   id="g94"
   transform="matrix(-1,0,0,1,137.56137,-0.00315325)">
	<g
   id="g52">
		<path
   class="st1"
   d="M 60.1,67.5 C 59,63.3 59.6,39.8 59.6,39.8 l -18.4,0.7 c 0,0 -0.2,23.2 -0.7,26.9 -0.5,3.7 -6.8,5.2 -14.3,9 -1,0.5 -2.2,1.7 -3.2,2.6 1.2,2.7 26,11.7 27.7,14.1 1.9,2.6 20.4,-11.1 22.5,-17 -8.5,-4.8 -12,-4.6 -13.1,-8.6 z"
   id="path8" />
		<path
   class="st1"
   d="M 60.5,68.5 C 60.4,68.2 60.3,67.9 60.1,67.5 59,63.3 59.6,39.8 59.6,39.8 l -18.4,0.7 c 0,0 -0.2,23.2 -0.7,26.9 -0.1,0.6 -0.3,1.1 -0.7,1.7 z"
   id="path10" />
		<path
   class="st2"
   d="m 58.7,39.4 -17,0.6 c 0,0 -0.1,5.4 -0.2,12 1.3,3.1 3.9,8 8.5,7.9 5.2,-0.1 6.9,-4.6 8.5,-7.4 -0.1,-6.7 0.2,-13.1 0.2,-13.1 z"
   id="path12" />
		<path
   class="st1"
   d="m 45.9,40 c -0.2,3.3 -3.1,5.8 -6.4,5.5 -3.3,-0.2 -5.8,-3.1 -5.5,-6.4 0.2,-3.3 3.1,-5.8 6.4,-5.5 3.2,0.2 5.7,3.1 5.5,6.4 z"
   id="path14" />
		<path
   class="st3"
   d="m 43.1,39.8 c -0.1,1.7 -1.6,3 -3.4,2.9 -1.7,-0.1 -3,-1.6 -2.9,-3.4 0.1,-1.7 1.6,-3 3.4,-2.9 1.7,0.2 3,1.7 2.9,3.4 z"
   id="path16" />
		<path
   class="st4"
   d="m 36.3,38 c -2.7,-2.4 -3.4,-11 1.6,-14.5 1.8,-1.3 4.3,-1.7 4.8,-3.5 1,-3.5 6.3,-6.1 10.3,-4.1 5.1,2.5 7.5,0.6 10.4,-2.4 3.1,-3.2 5.1,-6.5 13.7,-5 8.6,1.5 11.2,0.5 12.8,-3.6 1.6,-4.1 9.5,-7.4 16.8,-2.3 7.3,5.1 9.7,9.1 14.6,7.3 4.9,-1.8 9.9,-4.7 14.3,-0.1 4.4,4.6 0.8,13.5 -4.9,13.4 -5.7,-0.1 -2.9,6.7 -1.3,10.8 1.5,4.1 -2.7,10.3 -9.9,7.8 -7.2,-2.5 -8.8,-0.4 -11.2,3.3 -2.3,3.8 -8.5,3.6 -11.5,1.4 -3,-2.2 -6.6,-4 -10.9,-1.3 -4.3,2.6 -5.7,4.3 -10.7,2.2 -5,-2.1 -6,-1.4 -8.9,0.2 C 63.4,49.1 57.7,47 57.7,47 Z"
   id="path18" />
		<path
   class="st5"
   d="M 50.6,40.7 50.2,36.3 67,37.4 c 6.7,-3.9 8.3,-3.9 13.6,-2.5 5.3,1.4 4.6,-4.9 10.2,-6.8 5.6,-1.9 6.7,3.1 11.8,3 5.1,-0.2 3.6,-5.2 10.1,-4.8 6.2,0.4 6.9,5 15.6,4.9 0.3,1 0.7,2 1.1,2.9 1.5,4.1 -2.7,10.3 -9.9,7.8 -7.2,-2.5 -8.8,-0.4 -11.2,3.3 -2.3,3.8 -8.5,3.6 -11.5,1.4 -3,-2.2 -6.6,-4 -10.9,-1.3 -4.3,2.6 -5.7,4.3 -10.7,2.2 -5,-2.1 -5.8,-1.6 -8.7,-0.1 -2.9,1.5 -8.4,0.2 -8.4,0.2 z"
   id="path20" />
		<circle
   class="st1"
   cx="61"
   cy="39.599998"
   id="ellipse22"
   r="6" />
		<path
   class="st3"
   d="m 57.8,39.8 c 0.1,1.7 1.6,3 3.4,2.9 1.7,-0.1 3,-1.6 2.9,-3.4 -0.1,-1.7 -1.6,-3 -3.4,-2.9 -1.7,0.2 -3,1.7 -2.9,3.4 z"
   id="path24" />
		<path
   class="st1"
   d="m 39.2,42.1 c 0.6,8.4 3.5,14.5 12,14.3 5.3,-0.1 9.9,-6 9.8,-14.4 -0.1,-8.8 -1.9,-15.9 -11.9,-15.9 -9.7,0 -10.5,7.6 -9.9,16 z"
   id="path26" />
		<path
   class="st3"
   d="m 53.9,46.8 c 0.1,1.4 1.4,2.5 2.8,2.4 1.4,-0.1 2.5,-1.4 2.4,-2.8 C 59,45 57.7,43.9 56.3,44 c -1.4,0.1 -2.5,1.4 -2.4,2.8 z"
   id="path28" />
		<path
   class="st3"
   d="m 40.9,46.8 c 0.1,1.4 1.4,2.5 2.8,2.4 1.4,-0.1 2.5,-1.4 2.4,-2.8 C 46,45 44.7,43.9 43.3,44 c -1.4,0.1 -2.5,1.3 -2.4,2.8 z"
   id="path30" />
		<path
   class="st3"
   d="m 50.2,42 -2,4 c -0.2,0.5 0.1,1 0.6,1 h 2.4 z"
   id="path32" />
		<path
   class="st6"
   d="m 66.8,41.1 c -4.8,2 -7.2,0.2 -9.4,-1.1 -2.2,-1.3 -2,-7.4 -5.3,-8.5 -3.3,-1 -4.1,1.6 -7.7,0.7 -4.1,-1.1 -5,1.4 -5,1.4 0,0 -0.1,-3.1 6,-5.3 6.1,-2.2 13.1,-2.2 16.7,1.6 1.2,1.2 1.1,3.1 2.5,4.3 3.3,3.1 2.2,6.9 2.2,6.9 z"
   id="path34" />
		<path
   class="st7"
   d="m 58.8,39.1 c -0.3,0 -0.6,-0.1 -0.8,-0.2 -0.3,0 -0.6,-0.1 -0.8,-0.1 -0.5,-0.1 -1.1,-0.1 -1.6,-0.1 -0.5,0 -1.1,0.1 -1.6,0.2 -0.5,0.1 -1.1,0.3 -1.5,0.5 v 0 c -0.1,0.1 -0.2,0 -0.3,-0.1 0,-0.1 0,-0.2 0,-0.2 0.5,-0.5 1,-0.8 1.6,-1 0.6,-0.2 1.2,-0.3 1.8,-0.3 0.6,0 1.2,0.1 1.8,0.3 0.3,0.1 0.6,0.2 0.9,0.3 0.3,0.1 0.5,0.3 0.8,0.4 0.1,0.1 0.1,0.2 0.1,0.3 -0.2,0 -0.3,0.1 -0.4,0 z"
   id="path36" />
		<path
   class="st8"
   d="m 54,42 c 0.4,0.1 0.7,0.1 1.1,0.2 0.3,0 0.7,0.1 1,0.1 0.3,0 0.7,0 1,-0.1 0.3,-0.1 0.7,-0.2 1,-0.3 v 0 c 0.1,0 0.2,0 0.2,0.1 0,0.1 0,0.1 0,0.2 -0.6,0.6 -1.4,0.9 -2.2,0.9 -0.4,0 -0.8,0 -1.2,-0.2 -0.2,0 -0.4,-0.1 -0.5,-0.2 -0.2,-0.1 -0.3,-0.2 -0.5,-0.3 -0.1,0 -0.1,-0.1 0,-0.2 0,-0.2 0,-0.2 0.1,-0.2 z"
   id="path38" />
		<path
   class="st8"
   d="m 42.3,42 c 0.4,0.1 0.7,0.1 1.1,0.2 0.3,0 0.7,0.1 1,0.1 0.3,0 0.7,0 1,-0.1 0.3,-0.1 0.7,-0.2 1,-0.3 v 0 c 0.1,0 0.2,0 0.2,0.1 0,0.1 0,0.1 0,0.2 -0.6,0.6 -1.4,0.9 -2.2,0.9 -0.4,0 -0.8,0 -1.2,-0.2 -0.2,0 -0.4,-0.1 -0.5,-0.2 -0.2,-0.1 -0.3,-0.2 -0.5,-0.3 -0.1,0 -0.1,-0.1 0,-0.2 0,-0.2 0,-0.2 0.1,-0.2 z"
   id="path40" />
		<path
   class="st7"
   d="m 47.5,39 c -0.3,0 -0.5,-0.1 -0.7,-0.1 -0.2,0 -0.5,-0.1 -0.7,-0.1 -0.5,-0.1 -1,-0.1 -1.4,-0.1 -0.5,0 -0.9,0 -1.4,0.1 -0.5,0.1 -0.9,0.2 -1.4,0.4 v 0 c -0.1,0 -0.2,0 -0.3,-0.1 0,-0.1 0,-0.2 0,-0.2 0.4,-0.4 0.9,-0.7 1.4,-0.8 0.5,-0.2 1.1,-0.2 1.6,-0.2 0.5,0 1.1,0.1 1.6,0.3 0.3,0.1 0.5,0.2 0.8,0.3 0.2,0.1 0.5,0.2 0.7,0.4 0.1,0.1 0.1,0.2 0.1,0.3 C 47.7,39 47.7,39 47.5,39 Z"
   id="path42" />
		<path
   class="st3"
   d="m 47.3,49.5 c 0,0.4 1.4,0.8 3,0.7 1.7,0 3,-0.4 3,-0.8 0,-0.6 -1.4,0.1 -3,0.1 -1.6,0 -2.9,-0.6 -3,0 z"
   id="path44" />
		<path
   class="st9"
   d="m 38.5,50.8 c -0.2,0 -0.3,-0.1 -0.3,-0.3 v -6.4 c 0,-0.2 0.1,-0.3 0.3,-0.3 0.2,0 0.3,0.1 0.3,0.3 v 6.4 c 0,0.2 -0.2,0.3 -0.3,0.3 z"
   id="path46" />
		<path
   class="st9"
   d="m 61.7,51.1 c -0.2,0 -0.3,-0.1 -0.3,-0.3 v -6.4 c 0,-0.2 0.1,-0.3 0.3,-0.3 0.2,0 0.3,0.1 0.3,0.3 v 6.4 c 0,0.2 -0.1,0.3 -0.3,0.3 z"
   id="path48" />
		<path
   class="st4"
   d="m 66.9,37.4 c -4.8,2 -6.7,2.5 -9,1.2 -2.2,-1.3 -2,-7.4 -5.3,-8.5 -3.3,-1 -4.1,2 -7.7,1.5 -3.9,-0.5 -5.7,1.3 -5.7,1.3 0,0 -1.3,-5.8 4.8,-8 6.1,-2.2 15,-0.2 18.6,3.6 3.7,3.8 4.3,8.9 4.3,8.9 z"
   id="path50" />
	</g>
	<path
   class="st9"
   d="m 30,169.3 c -11.2,0 -14.1,-11.8 -11.7,-24 2.8,-14.2 17,-21 30.3,-21 13.3,0 27,8.1 30.8,22.1 2.9,10.9 -1,22.9 -12.2,22.9 z"
   id="path54" />
	<path
   class="st10"
   d="M 61.6,168.5 H 32.9 c -4.5,0 -8.1,-3.7 -8.1,-8.1 v -3.8 c 0,-4.5 3.7,-8.1 8.1,-8.1 h 28.7 c 4.5,0 8.1,3.7 8.1,8.1 v 3.8 c 0,4.5 -3.6,8.1 -8.1,8.1 z"
   id="path56" />
	<path
   class="st11"
   d="m 36.7,71.2 c 0,0 -11.2,4.1 -15.2,8.2 -3.3,3.5 -4.7,5.7 -4.7,5.7 l 11.5,37.3 H 69 L 83.3,85.1 c 0,0 -3.1,-5.7 -10.1,-9.5 C 66.3,71.8 64.3,71.5 63.5,71 63.5,71 53.6,83.1 51,83.3 48.4,83.4 36.7,71.2 36.7,71.2 Z"
   id="path58" />
	<path
   class="st12"
   d="m 51,84.4 c 3.1,0.1 11.9,-11.2 13.3,-13 -0.4,-0.1 -0.6,-0.3 -0.8,-0.4 0,0 -9.9,12.1 -12.5,12.3 -2.6,0.1 -14.3,-12.1 -14.3,-12.1 0,0 -0.3,0.1 -0.8,0.3 1.2,1.4 11.9,12.8 15.1,12.9 z"
   id="path60" />
	<path
   class="st1"
   d="m 17,85.2 c 1.7,6.6 8.2,7.3 9.3,15.9 C 20.7,111.5 15,127 15,127 c 0,0 21.8,1.1 30.6,3.8 l -0.2,10.4 c 0,0 -27.8,0 -35.6,0 -7.8,0 -11.5,-5.3 -9,-17.3 C 3.9,108.6 12.4,91.7 17,85.2 Z"
   id="path62" />
	<path
   class="st1"
   d="m 82.8,85.2 c -0.6,6.7 -11.1,11.4 -9.3,15.9 4.1,10.2 10.7,26.1 10.7,26.1 0,0 -21.6,-0.6 -29.7,2 v 12 c 0,0 27.8,0 35.6,0 7.8,0 11.6,-5.9 8.8,-17.8 C 96.2,111.6 90.7,96.2 82.8,85.2 Z"
   id="path64" />
	<g
   id="g70">
		<path
   class="st1"
   d="m 26.3,150.1 c 8.8,-1.3 12.2,7.1 15.4,20.4 3.2,13.3 11.6,48.9 15.8,61.1 3.9,11.3 -0.6,7.7 -2.6,13.8 -1.8,5.7 -4.7,9.9 -9,10.1 -3.1,0.2 -0.1,-9.2 3.4,-16.3 -0.5,-6.6 -7.4,-19.5 -18.2,-42.8 -10.6,-23 -10.8,-26.6 -11.5,-34.3 -0.6,-7.5 3.5,-11.5 6.7,-12 z"
   id="path66" />
		<path
   class="st3"
   d="m 24.5,157.8 c 0,2.1 1.7,3.7 3.7,3.7 2.1,0 3.7,-1.7 3.7,-3.7 0,-2.1 -1.7,-3.7 -3.7,-3.7 -2,0 -3.7,1.7 -3.7,3.7 z"
   id="path68" />
	</g>
	<path
   class="st3"
   d="m 2.5,133.5 c -0.8,0 -1.6,0.2 -2.2,0.6 0.8,3.4 2.7,5.4 5.5,6.4 0.6,-0.7 1,-1.7 1,-2.7 0,-2.4 -1.9,-4.3 -4.3,-4.3 z"
   id="path72" />
	<path
   class="st3"
   d="m 99.3,134.7 c -0.7,-0.5 -1.5,-0.8 -2.4,-0.8 -2.3,0 -4.3,1.9 -4.3,4.3 0,0.9 0.3,1.8 0.8,2.5 3,-0.9 5,-2.8 5.9,-6 z"
   id="path74" />
	<g
   id="g80">
		<path
   class="st13"
   d="m 57,149.8 c 8.2,0 8,16.3 7.6,24.9 -0.5,8.7 -5.6,36 -12.1,54.5 -6.5,18.5 -7.4,21.6 -7.6,26.9 -0.2,5.3 -6.1,6.3 -10.1,6.1 -4,-0.2 -4,-1.1 0.2,-12.6 C 39.2,238.2 44.5,206 45.5,187 46.4,168.1 42.2,149.8 57,149.8 Z"
   id="path76" />
		<path
   class="st3"
   d="m 51.8,158 c 0,2.1 1.7,3.7 3.7,3.7 2.1,0 3.7,-1.7 3.7,-3.7 0,-2.1 -1.7,-3.7 -3.7,-3.7 -2,0 -3.7,1.6 -3.7,3.7 z"
   id="path78" />
	</g>
	<path
   class="st9"
   d="m 18.1,156.4 c 3.4,-5.7 41.6,-5.9 53.2,-0.7 l -0.7,-16.3 -49,0.9 z"
   id="path82" />
	<g
   id="g92">
		<path
   class="st14"
   d="M 70.8,140.7 H 23.5 c -3.4,0 -6.2,-2.8 -6.2,-6.2 V 107 c 0,-3.4 2.8,-6.2 6.2,-6.2 h 47.3 c 3.4,0 6.2,2.8 6.2,6.2 v 27.5 c 0,3.4 -2.8,6.2 -6.2,6.2 z"
   id="path84" />
		<path
   class="st15"
   d="M 77,141.4 H 17.2 v -33.8 c 0,-3.4 2.8,-6.2 6.2,-6.2 h 47.3 c 3.4,0 6.2,2.8 6.2,6.2 z"
   id="path86" />
		<path
   class="st16"
   d="M 77,141.4 H 17.2 v 0.5 c 0,0.7 0.6,1.4 1.4,1.4 h 57 c 0.7,0 1.4,-0.6 1.4,-1.4 z"
   id="path88" />
		
			<circle
   transform="matrix(0.1602,-0.9871,0.9871,0.1602,-80.4017,148.1589)"
   class="st12"
   cx="46.900002"
   cy="121.3"
   id="ellipse90"
   r="5.1999998" />
	</g>
</g>
</svg>
